<svg width="65" height="65" viewBox="0 0 65 65" fill="none" xmlns="http://www.w3.org/2000/svg">
<path d="M54.055 41.937C54.055 49.685 47.755 44.551 40.007 44.551C32.259 44.551 25.955 49.684 25.955 41.937C25.955 36.196 29.409 24.995 34.355 19.581L32.488 14.867C32.4069 14.6607 32.3772 14.4378 32.4015 14.2175C32.4257 13.9971 32.5032 13.786 32.6272 13.6023C32.7512 13.4185 32.918 13.2677 33.1133 13.1628C33.3085 13.0579 33.5264 13.002 33.748 13H46.255C46.4782 12.9976 46.6986 13.0507 46.8962 13.1544C47.0939 13.2581 47.2628 13.4093 47.3876 13.5943C47.5125 13.7793 47.5895 13.9925 47.6118 14.2146C47.634 14.4367 47.6008 14.6609 47.515 14.867L45.655 19.581C50.598 24.995 54.055 36.2 54.055 41.937Z" fill="#005993"/>
<path d="M41.9537 33.4649C41.975 33.0628 41.8359 32.6685 41.566 32.3664C41.1882 32.0237 40.739 31.7667 40.2499 31.6135C39.7031 31.4149 39.168 31.1862 38.6473 30.9284C38.2276 30.7214 37.8389 30.4582 37.4921 30.1465C37.1727 29.8545 36.9174 29.501 36.7419 29.1079C36.5528 28.6579 36.4614 28.1738 36.4736 27.6869C36.4581 27.2571 36.5318 26.8287 36.6902 26.4281C36.8487 26.0274 37.0885 25.663 37.3949 25.3571C38.0579 24.7296 38.9249 24.3542 39.8419 24.2975V22.5H41.2025V24.3255C42.1234 24.4203 42.9706 24.8652 43.5645 25.5658C44.1584 26.3292 44.4603 27.2748 44.4169 28.2361H41.9537C41.9946 27.6998 41.8454 27.166 41.5316 26.7262C41.395 26.5627 41.2219 26.4326 41.0259 26.346C40.8299 26.2594 40.6163 26.2186 40.4017 26.2269C40.2035 26.2147 40.005 26.2433 39.8185 26.3106C39.6321 26.378 39.4618 26.4828 39.3185 26.6183C39.1854 26.7646 39.083 26.9353 39.0171 27.1208C38.9513 27.3062 38.9233 27.5027 38.9348 27.6989C38.9258 27.8859 38.9543 28.0729 39.0188 28.2491C39.0832 28.4253 39.1823 28.5872 39.3104 28.7254C39.7181 29.0766 40.1917 29.3453 40.7044 29.5164C41.2778 29.7369 41.8373 29.991 42.38 30.2773C42.7867 30.493 43.16 30.7651 43.4885 31.0852C43.7854 31.3788 44.0201 31.7278 44.179 32.1118C44.3462 32.5393 44.4273 32.9948 44.4179 33.4529C44.4355 33.8803 44.3643 34.3067 44.2089 34.7059C44.0534 35.1052 43.8169 35.4689 43.5138 35.7747C42.8349 36.4027 41.9536 36.775 41.0244 36.8263V38.5H39.6677V36.8273C38.6419 36.7685 37.6757 36.3319 36.9606 35.604C36.296 34.8379 35.954 33.8498 36.0049 32.8428H38.466C38.4283 33.3956 38.6 33.9426 38.9479 34.3777C39.1253 34.5613 39.3413 34.7043 39.5808 34.7966C39.8202 34.8889 40.0773 34.9283 40.3339 34.9119C40.7652 34.9354 41.1894 34.7954 41.5194 34.5205C41.665 34.386 41.7792 34.222 41.8542 34.0398C41.9292 33.8575 41.9631 33.6614 41.9537 33.4649Z" fill="white"/>
<path d="M57.692 47.117L53.958 49.171C50.1267 51.2709 45.8862 52.5168 41.5278 52.823C37.1694 53.1293 32.7964 52.4886 28.709 50.945L23.995 49.125C23.5343 48.9424 23.0436 48.8475 22.548 48.845H18.348V38.063H24.322C24.7675 38.0682 25.2091 38.1469 25.629 38.296L30.948 40.07C32.8888 40.7202 34.9222 41.0512 36.969 41.05H41.963C42.334 41.0463 42.702 41.1159 43.046 41.2547C43.39 41.3935 43.7033 41.5989 43.9678 41.859C44.2323 42.1191 44.4428 42.4289 44.5873 42.7705C44.7319 43.1122 44.8075 43.479 44.81 43.85C44.7947 44.5372 44.5099 45.1908 44.017 45.67C43.8355 45.8509 43.6315 46.0079 43.41 46.137L55.592 42.403C56.2018 42.1781 56.8733 42.1873 57.4767 42.4287C58.0801 42.6701 58.5726 43.1266 58.859 43.71C59.1167 44.3221 59.1401 45.0076 58.9249 45.6359C58.7097 46.2642 58.2709 46.7914 57.692 47.117Z" fill="#F2F4F7"/>
<path d="M19.368 35.403V51.551H10.041C6.8419 46.7655 5.09156 41.1586 5 35.403H19.368Z" fill="#D71049"/>
</svg>
