<svg xmlns="http://www.w3.org/2000/svg" width="49" height="49" viewBox="0 0 49 49" fill="none">
  <path d="M0.5 24.6001C0.5 37.8549 11.2452 48.6001 24.5 48.6001C37.7548 48.6001 48.5 37.8549 48.5 24.6001C48.5 11.3453 37.7548 0.600098 24.5 0.600098C11.2452 0.600098 0.5 11.3453 0.5 24.6001Z" fill="#1877F2"/>
  <path d="M36.5 24.6001C36.5 18.0001 31.1 12.6001 24.5 12.6001C17.9 12.6001 12.5 18.0001 12.5 24.6001C12.5 30.6001 16.85 35.5501 22.55 36.4501V28.0501H19.55V24.6001H22.55V21.9001C22.55 18.9001 24.35 17.2501 27.05 17.2501C28.4 17.2501 29.75 17.5501 29.75 17.5501V20.5501H28.25C26.75 20.5501 26.3 21.4501 26.3 22.3501V24.6001H29.6L29 28.0501H26.15V36.6001C32.15 35.7001 36.5 30.6001 36.5 24.6001Z" fill="white"/>
</svg>