<svg width="65" height="65" viewBox="0 0 65 65" fill="none" xmlns="http://www.w3.org/2000/svg">
<path d="M46 5H16C14.3431 5 13 6.34315 13 8V57C13 58.6569 14.3431 60 16 60H46C47.6569 60 49 58.6569 49 57V8C49 6.34315 47.6569 5 46 5Z" fill="#005993"/>
<path d="M41 10H21C19.3431 10 18 11.3431 18 13V48C18 49.6569 19.3431 51 21 51H41C42.6569 51 44 49.6569 44 48V13C44 11.3431 42.6569 10 41 10Z" fill="white"/>
<path fill-rule="evenodd" clip-rule="evenodd" d="M25.778 54.348C25.778 53.7957 26.2257 53.348 26.778 53.348H35.2209C35.7732 53.348 36.2209 53.7957 36.2209 54.348C36.2209 54.9003 35.7732 55.348 35.2209 55.348H26.778C26.2257 55.348 25.778 54.9003 25.778 54.348Z" fill="white"/>
<path d="M36.5741 42.202C35.2301 43.114 28.8601 42.62 29.7741 42.585C30.4971 42.557 32.1641 41.115 32.9651 40.385C30.5031 38.5742 28.8115 35.9043 28.2258 32.9047C27.6402 29.9051 28.2032 26.7949 29.8033 24.191C31.4034 21.5871 33.9236 19.6796 36.8642 18.8469C39.8048 18.0141 42.951 18.3169 45.6788 19.6952C48.4065 21.0735 50.5167 23.4267 51.5908 26.2879C52.6649 29.1492 52.6244 32.3097 51.4774 35.1425C50.3304 37.9753 48.1607 40.2737 45.3985 41.5817C42.6363 42.8897 39.4834 43.1118 36.5651 42.204L36.5741 42.202Z" fill="#D71049"/>
<path d="M41.684 33.4649C41.7053 33.0628 41.5661 32.6685 41.2963 32.3664C40.9185 32.0237 40.4693 31.7667 39.9802 31.6135C39.4334 31.4149 38.8983 31.1862 38.3775 30.9284C37.9579 30.7214 37.5692 30.4582 37.2224 30.1465C36.903 29.8545 36.6477 29.501 36.4722 29.1079C36.2831 28.6579 36.1917 28.1738 36.2039 27.6869C36.1884 27.2571 36.2621 26.8287 36.4205 26.4281C36.579 26.0274 36.8188 25.663 37.1252 25.3571C37.7882 24.7296 38.6552 24.3542 39.5722 24.2975V22.5H40.9328V24.3255C41.8537 24.4203 42.7009 24.8652 43.2947 25.5658C43.8887 26.3292 44.1906 27.2748 44.1472 28.2361H41.684C41.7249 27.6998 41.5757 27.166 41.2619 26.7262C41.1252 26.5627 40.9522 26.4326 40.7562 26.346C40.5602 26.2594 40.3466 26.2186 40.132 26.2269C39.9338 26.2147 39.7353 26.2433 39.5488 26.3106C39.3624 26.378 39.1921 26.4828 39.0488 26.6183C38.9157 26.7646 38.8133 26.9353 38.7474 27.1208C38.6816 27.3062 38.6536 27.5027 38.6651 27.6989C38.656 27.8859 38.6846 28.0729 38.749 28.2491C38.8135 28.4253 38.9126 28.5872 39.0407 28.7254C39.4484 29.0766 39.922 29.3453 40.4347 29.5164C41.0081 29.7369 41.5676 29.991 42.1102 30.2773C42.517 30.493 42.8903 30.7651 43.2188 31.0852C43.5157 31.3788 43.7504 31.7278 43.9093 32.1118C44.0764 32.5393 44.1576 32.9948 44.1482 33.4529C44.1658 33.8803 44.0946 34.3067 43.9392 34.7059C43.7837 35.1052 43.5472 35.4689 43.2441 35.7747C42.5652 36.4027 41.6839 36.775 40.7546 36.8263V38.5H39.398V36.8273C38.3721 36.7685 37.406 36.3319 36.6909 35.604C36.0263 34.8379 35.6843 33.8498 35.7352 32.8428H38.1963C38.1586 33.3956 38.3303 33.9426 38.6782 34.3777C38.8556 34.5613 39.0716 34.7043 39.3111 34.7966C39.5505 34.8889 39.8076 34.9283 40.0642 34.9119C40.4955 34.9354 40.9197 34.7954 41.2497 34.5205C41.3953 34.386 41.5095 34.222 41.5845 34.0398C41.6595 33.8575 41.6934 33.6614 41.684 33.4649Z" fill="white"/>
</svg>
