<svg width="65" height="65" viewBox="0 0 65 65" fill="none" xmlns="http://www.w3.org/2000/svg">
<path d="M57 12.5H8C6.34315 12.5 5 13.8431 5 15.5V48.5C5 50.1569 6.34315 51.5 8 51.5H57C58.6569 51.5 60 50.1569 60 48.5V15.5C60 13.8431 58.6569 12.5 57 12.5Z" fill="#005993"/>
<path d="M17 30.5C20.3137 30.5 23 27.8137 23 24.5C23 21.1863 20.3137 18.5 17 18.5C13.6863 18.5 11 21.1863 11 24.5C11 27.8137 13.6863 30.5 17 30.5Z" fill="white"/>
<path d="M23 30.5C26.3137 30.5 29 27.8137 29 24.5C29 21.1863 26.3137 18.5 23 18.5C19.6863 18.5 17 21.1863 17 24.5C17 27.8137 19.6863 30.5 23 30.5Z" fill="#D71049"/>
<path fill-rule="evenodd" clip-rule="evenodd" d="M10.484 43.8C10.484 43.2477 10.9317 42.8 11.484 42.8H53.516C54.0683 42.8 54.516 43.2477 54.516 43.8C54.516 44.3523 54.0683 44.8 53.516 44.8H11.484C10.9317 44.8 10.484 44.3523 10.484 43.8Z" fill="white"/>
</svg>
