<svg width="65" height="65" viewBox="0 0 65 65" fill="none" xmlns="http://www.w3.org/2000/svg">
<path d="M13.394 28.051V12.968H11L14.813 8L18.625 12.968H16.256V28.051H13.394Z" fill="#005993"/>
<path d="M23.528 31.195V22.507H21.134L24.947 17.539L28.76 22.507H26.39V31.195H23.528Z" fill="#D71049"/>
<path d="M44.242 28.296C49.8466 28.296 54.39 23.7526 54.39 18.148C54.39 12.5434 49.8466 8 44.242 8C38.6374 8 34.094 12.5434 34.094 18.148C34.094 23.7526 38.6374 28.296 44.242 28.296Z" fill="#005993"/>
<path d="M44.266 25.877C48.4937 25.877 51.921 22.4498 51.921 18.222C51.921 13.9943 48.4937 10.567 44.266 10.567C40.0382 10.567 36.611 13.9943 36.611 18.222C36.611 22.4498 40.0382 25.877 44.266 25.877Z" fill="white"/>
<path d="M43.494 12.323V13.852C42.9618 14.0079 42.4942 14.3318 42.1613 14.7754C41.8284 15.219 41.648 15.7584 41.647 16.313C41.647 17.0026 41.921 17.6639 42.4086 18.1515C42.8962 18.6391 43.5575 18.913 44.247 18.913H44.273C44.5564 18.913 44.8282 19.0256 45.0286 19.226C45.2289 19.4263 45.3415 19.6981 45.3415 19.9815C45.3415 20.2649 45.2289 20.5367 45.0286 20.737C44.8282 20.9374 44.5564 21.05 44.273 21.05H44.213C43.9296 21.0495 43.658 20.9365 43.4577 20.7359C43.2575 20.5353 43.145 20.2634 43.145 19.98V19.929H41.645V19.98C41.646 20.5346 41.8264 21.074 42.1593 21.5176C42.4922 21.9612 42.9598 22.2851 43.492 22.441V23.97H44.992V22.441C45.5851 22.2685 46.096 21.8878 46.4307 21.3688C46.7655 20.8497 46.9017 20.2273 46.8142 19.6159C46.7267 19.0045 46.4215 18.4452 45.9547 18.0409C45.4878 17.6365 44.8907 17.4143 44.273 17.415H44.245C44.1006 17.415 43.9575 17.3865 43.8241 17.3313C43.6906 17.276 43.5694 17.195 43.4672 17.0928C43.3651 16.9907 43.284 16.8694 43.2288 16.7359C43.1735 16.6025 43.145 16.4595 43.145 16.315C43.1455 16.0319 43.2583 15.7606 43.4584 15.5604C43.6586 15.3602 43.93 15.2475 44.213 15.247H44.272C44.4125 15.2465 44.5517 15.2736 44.6817 15.3269C44.8116 15.3802 44.9298 15.4586 45.0294 15.5576C45.1291 15.6566 45.2083 15.7743 45.2624 15.9039C45.3166 16.0335 45.3446 16.1725 45.345 16.313V16.33H46.845V16.313C46.8441 15.7585 46.6639 15.2192 46.3311 14.7756C45.9984 14.3321 45.5311 14.0081 44.999 13.852V12.323H43.499H43.494Z" fill="#D71049"/>
<path d="M44.348 36.956H35.5V55.238H44.348V36.956Z" fill="#D71049"/>
<path d="M60.348 31.956H51.5V55.238H60.348V31.956Z" fill="#005993"/>
<path d="M29.348 40.956H20.5V55.238H29.348V40.956Z" fill="#005993"/>
<path d="M14.348 44.956H5.5V55.238H14.348V44.956Z" fill="#D71049"/>
<path d="M5 56.042H60" stroke="#0085B8" stroke-linecap="round"/>
</svg>
