<svg width="214" height="75" viewBox="0 0 214 75" fill="none" xmlns="http://www.w3.org/2000/svg">
<path fill-rule="evenodd" clip-rule="evenodd" d="M186.349 14.9856H198.881V25.9184C203.458 26.6122 207.885 28.0679 211.973 30.2241C213.503 26.9916 214.185 23.4282 213.957 19.8643C213.728 16.3005 212.596 12.8516 210.666 9.83727C208.735 6.82299 206.069 4.34096 202.913 2.62129C199.758 0.901629 196.215 0 192.615 0C189.015 0 185.472 0.901629 182.317 2.62129C179.161 4.34096 176.495 6.82299 174.564 9.83727C172.634 12.8516 171.502 16.3005 171.273 19.8643C171.045 23.4282 171.727 26.9916 173.257 30.2241C177.346 28.0685 181.772 26.6128 186.349 25.9184V14.9856Z" fill="white"/>
<path fill-rule="evenodd" clip-rule="evenodd" d="M192.615 42.3475C196.163 42.3492 199.656 41.4754 202.779 39.8048C205.902 38.1342 208.557 35.7193 210.504 32.7776C204.988 29.8993 198.848 28.3953 192.615 28.3953C186.382 28.3953 180.242 29.8993 174.726 32.7776C176.672 35.7207 179.326 38.1367 182.45 39.8075C185.573 41.4783 189.066 42.3513 192.615 42.3475Z" fill="white"/>
<path fill-rule="evenodd" clip-rule="evenodd" d="M199.793 68.9206C199.708 68.1575 199.357 67.4476 198.802 66.9127C198.5 66.6067 198.138 66.3655 197.738 66.2045C197.338 66.0436 196.908 65.9659 196.477 65.9767C195.703 65.9765 194.953 66.2434 194.355 66.7315C193.758 67.2197 193.35 67.8986 193.201 68.6522C193.053 69.4058 193.174 70.187 193.542 70.8623C193.911 71.5374 194.504 72.0645 195.222 72.3532C195.939 72.642 196.735 72.6744 197.474 72.445C198.213 72.2155 198.848 71.7384 199.271 71.0954C199.694 70.4526 199.879 69.6837 199.793 68.9206ZM197.224 71.0126C196.987 71.1078 196.733 71.1537 196.477 71.1471C196.221 71.1526 195.966 71.1064 195.729 71.0111C195.491 70.9159 195.276 70.7736 195.095 70.593C194.736 70.2175 194.536 69.7197 194.536 69.2021C194.536 68.6846 194.736 68.1868 195.095 67.8113C195.465 67.4555 195.96 67.2566 196.475 67.2566C196.99 67.2566 197.485 67.4555 197.855 67.8113C198.215 68.1858 198.417 68.684 198.417 69.2021C198.417 69.7202 198.215 70.2184 197.855 70.593C197.676 70.7744 197.461 70.9171 197.224 71.0126Z" fill="white"/>
<path d="M195.869 65.3251L196.477 64.4752L197.088 65.3251H198.353L197.122 63.7227H195.82L194.601 65.3251H195.869Z" fill="white"/>
<path d="M200.188 62.6031H198.678L197.768 64.1533H198.957L200.188 62.6031Z" fill="white"/>
<path d="M98.3931 63.6589H96.9662V69.5073L92.8629 63.6589H91.7304V72.2704H93.1573V66.422L97.2607 72.2704H98.3931V63.6589Z" fill="white"/>
<path fill-rule="evenodd" clip-rule="evenodd" d="M106.003 66.1376H104.659V67.01C104.412 66.6719 104.084 66.4006 103.704 66.2202C103.325 66.0398 102.906 65.956 102.485 65.9765C102.075 65.9705 101.668 66.0507 101.291 66.2122C100.914 66.3734 100.576 66.6122 100.299 66.9125C99.7114 67.5367 99.3843 68.3592 99.3843 69.2133C99.3843 70.0676 99.7114 70.8899 100.299 71.514C100.576 71.8144 100.914 72.0532 101.291 72.2146C101.668 72.3758 102.075 72.4561 102.485 72.4501C102.907 72.4711 103.327 72.3864 103.707 72.2038C104.087 72.0212 104.415 71.7468 104.659 71.4054V72.2928H106.003V66.1376ZM103.456 71.0499C103.214 71.1451 102.956 71.191 102.697 71.1846C102.437 71.191 102.179 71.1451 101.937 71.0499C101.696 70.9546 101.477 70.812 101.292 70.6305C101.108 70.4438 100.964 70.2223 100.868 69.9791C100.772 69.736 100.726 69.4762 100.734 69.2151C100.723 68.9555 100.768 68.6966 100.864 68.4548C100.96 68.2131 101.106 67.9939 101.292 67.8111C101.667 67.4462 102.171 67.2418 102.697 67.2418C103.222 67.2418 103.726 67.4462 104.101 67.8111C104.287 67.9939 104.433 68.2131 104.529 68.4548C104.625 68.6966 104.67 68.9555 104.659 69.2151C104.667 69.4762 104.621 69.736 104.525 69.9791C104.429 70.2223 104.285 70.4438 104.101 70.6305C103.917 70.812 103.697 70.9546 103.456 71.0499Z" fill="white"/>
<path d="M102.474 65.3962L103.131 64.4864L103.78 65.3962H105.146L103.829 63.6739H102.425L101.107 65.3962H102.474Z" fill="white"/>
<path d="M112.915 68.5263V72.3078H111.575V68.6612C111.575 67.7401 111.039 67.2346 110.182 67.2346C109.238 67.2346 108.604 67.8113 108.604 69.0056V72.3078H107.26V66.1376H108.604V66.9239C108.811 66.61 109.098 66.3566 109.437 66.19C109.775 66.0235 110.153 65.9498 110.529 65.9765C111.96 65.9765 112.915 66.935 112.915 68.5263Z" fill="white"/>
<path fill-rule="evenodd" clip-rule="evenodd" d="M120.314 66.1376H118.997L118.993 67.0399C118.754 66.6941 118.429 66.4143 118.051 66.227C117.673 66.0396 117.252 65.9509 116.83 65.9692C116.413 65.9606 115.999 66.0396 115.615 66.2008C115.231 66.3622 114.886 66.6023 114.603 66.9052C114.307 67.1995 114.074 67.5504 113.918 67.9365C113.762 68.3226 113.687 68.7359 113.697 69.1517C113.69 69.567 113.767 69.9795 113.922 70.365C114.078 70.7508 114.309 71.102 114.603 71.3981C114.889 71.6963 115.235 71.9321 115.619 72.0908C116.002 72.2493 116.415 72.327 116.83 72.3192C117.252 72.3375 117.673 72.2488 118.051 72.0614C118.429 71.874 118.754 71.5943 118.993 71.2484V71.9972C118.993 73.068 118.295 73.6971 117.139 73.6971C116.256 73.6971 115.648 73.3749 115.324 72.7497L114.169 73.4124C114.705 74.4159 115.686 74.9101 117.117 74.9101C117.937 74.9347 118.74 74.6693 119.382 74.1612C119.695 73.8987 119.942 73.5676 120.104 73.194C120.266 72.8203 120.338 72.4144 120.314 72.0084V66.1376ZM117.783 70.9521C117.541 71.0473 117.282 71.0921 117.022 71.0837C116.761 71.0897 116.501 71.0438 116.258 70.9488C116.015 70.8535 115.793 70.7109 115.607 70.5296C115.249 70.1586 115.049 69.665 115.049 69.1517C115.049 68.6381 115.249 68.1445 115.607 67.7738C115.793 67.5922 116.015 67.4496 116.258 67.3546C116.501 67.2593 116.761 67.2134 117.022 67.2197C117.282 67.2111 117.541 67.2559 117.783 67.3513C118.025 67.4465 118.244 67.5904 118.427 67.7738C118.795 68.1396 119.001 68.635 119.001 69.1517C119.001 69.6683 118.795 70.1638 118.427 70.5296C118.244 70.7128 118.025 70.8566 117.783 70.9521Z" fill="white"/>
<path fill-rule="evenodd" clip-rule="evenodd" d="M129.313 66.1376H130.635V72.0084C130.658 72.4144 130.586 72.8203 130.425 73.194C130.263 73.5676 130.015 73.8987 129.702 74.1612C129.061 74.6691 128.258 74.9344 127.437 74.9101C126.01 74.9101 125.025 74.4159 124.493 73.4124L125.648 72.7497C125.973 73.3749 126.58 73.6971 127.464 73.6971C128.619 73.6971 129.313 73.068 129.313 71.9972V71.2484C129.074 71.5943 128.75 71.874 128.372 72.0614C127.993 72.2488 127.573 72.3375 127.15 72.3192C126.736 72.327 126.324 72.2492 125.941 72.0906C125.558 71.9321 125.213 71.6963 124.927 71.3981C124.633 71.102 124.402 70.7508 124.247 70.365C124.091 69.9795 124.014 69.567 124.021 69.1517C124.011 68.7359 124.087 68.3226 124.242 67.9365C124.398 67.5504 124.631 67.1995 124.927 66.9052C125.21 66.6023 125.554 66.3622 125.938 66.201C126.321 66.0396 126.734 65.9606 127.15 65.9692C127.573 65.9509 127.993 66.0396 128.372 66.227C128.75 66.4143 129.074 66.6941 129.313 67.0399V66.1376ZM127.339 71.0837C127.447 71.0866 127.554 71.0806 127.66 71.0658C127.81 71.0448 127.957 71.0062 128.099 70.9502C128.34 70.8548 128.56 70.7117 128.743 70.5296C129.109 70.1623 129.313 69.6674 129.313 69.1517C129.313 68.6359 129.109 68.1409 128.743 67.7738C128.56 67.5915 128.34 67.4484 128.099 67.3531C127.857 67.2579 127.599 67.2125 127.339 67.2197L127.293 67.2191L127.267 67.2193L127.215 67.2208C127.172 67.2224 127.128 67.2255 127.085 67.2301C127.043 67.2345 127.001 67.2403 126.959 67.2476C126.827 67.2701 126.698 67.3059 126.573 67.3548C126.329 67.4498 126.107 67.5924 125.92 67.7738C125.562 68.1445 125.362 68.6381 125.362 69.1517C125.362 69.665 125.562 70.1586 125.92 70.5296C126.107 70.7109 126.329 70.8533 126.573 70.9486C126.817 71.0437 127.077 71.0897 127.339 71.0837Z" fill="white"/>
<path d="M131.723 64.5913C131.723 64.8096 131.809 65.0193 131.963 65.1754C132.121 65.3284 132.333 65.414 132.554 65.414C132.775 65.414 132.987 65.3284 133.145 65.1754C133.224 65.0988 133.288 65.0074 133.331 64.9065C133.337 64.8917 133.343 64.8767 133.349 64.8615L133.358 64.8348L133.363 64.8182L133.368 64.8001C133.373 64.7847 133.376 64.7692 133.38 64.7536C133.392 64.699 133.398 64.6432 133.398 64.5871C133.399 64.4774 133.377 64.3686 133.335 64.267C133.293 64.1655 133.231 64.0732 133.153 63.9959C133.074 63.9183 132.981 63.8569 132.879 63.8156C132.776 63.7741 132.666 63.7533 132.556 63.7544C132.445 63.7554 132.336 63.7783 132.234 63.8218C132.132 63.8651 132.04 63.9282 131.963 64.0072C131.809 64.1631 131.723 64.3728 131.723 64.5913Z" fill="white"/>
<path d="M133.232 66.1376H131.888V72.2892L133.232 72.2928V66.1376Z" fill="white"/>
<path fill-rule="evenodd" clip-rule="evenodd" d="M139.396 66.1376H140.74V72.2928H139.396V71.4054C139.151 71.7468 138.824 72.0212 138.444 72.2038C138.064 72.3864 137.644 72.4711 137.222 72.4501C136.812 72.4561 136.405 72.3758 136.028 72.2146C135.651 72.0532 135.313 71.8144 135.036 71.514C134.448 70.8899 134.121 70.0676 134.121 69.2133C134.121 68.359 134.448 67.5367 135.036 66.9125C135.313 66.6122 135.651 66.3734 136.028 66.2122C136.405 66.0507 136.812 65.9705 137.222 65.9765C137.642 65.956 138.061 66.0398 138.441 66.2202C138.821 66.4006 139.149 66.6719 139.396 67.01V66.1376ZM137.433 71.1846C137.693 71.191 137.951 71.1451 138.193 71.0499C138.434 70.9546 138.653 70.812 138.838 70.6305C139.022 70.4438 139.166 70.2223 139.262 69.9791C139.358 69.736 139.404 69.4762 139.396 69.2151C139.407 68.9555 139.362 68.6966 139.266 68.4548C139.17 68.2131 139.024 67.9939 138.838 67.8111C138.463 67.4462 137.959 67.2418 137.433 67.2418C136.908 67.2418 136.404 67.4462 136.029 67.8111C135.843 67.9939 135.697 68.2131 135.601 68.4548C135.505 68.6966 135.46 68.9555 135.47 69.2151C135.463 69.4762 135.509 69.736 135.605 69.9791C135.701 70.2223 135.845 70.4438 136.029 70.6305C136.213 70.812 136.433 70.9546 136.674 71.0499C136.763 71.085 136.854 71.1133 136.946 71.1349C137.106 71.1718 137.269 71.1886 137.433 71.1846Z" fill="white"/>
<path d="M139.808 63.6589L138.49 65.3213H137.199L138.192 63.6589H139.808Z" fill="white"/>
<path d="M146.72 67.403H148.264V66.1262H146.72V64.4002L145.38 64.7933V66.1262H144.247V67.403H145.38V70.3608C145.38 71.9709 146.21 72.525 148.264 72.2815V71.0872C147.244 71.136 146.72 71.1471 146.72 70.3608V67.403Z" fill="white"/>
<path d="M150.574 67.171C150.728 66.8021 150.998 66.4919 151.343 66.2856C151.688 66.0796 152.09 65.9884 152.491 66.0253V67.4668C152.012 67.4226 151.534 67.556 151.148 67.8412C150.946 68.0023 150.789 68.2105 150.688 68.4471C150.588 68.6837 150.549 68.9413 150.574 69.1965V72.3003H149.234V66.1376H150.574V67.171Z" fill="white"/>
<path d="M153.029 64.7498C153.062 64.9114 153.143 65.0595 153.262 65.1752C153.418 65.3299 153.63 65.4165 153.85 65.4165C154.071 65.4165 154.283 65.3299 154.439 65.1752C154.558 65.0595 154.638 64.9114 154.672 64.7498C154.705 64.5884 154.689 64.4207 154.626 64.2683C154.563 64.1158 154.455 63.9853 154.317 63.8935C154.179 63.8017 154.017 63.7527 153.85 63.7527C153.684 63.7527 153.522 63.8017 153.384 63.8935C153.246 63.9853 153.138 64.1158 153.075 64.2683C153.012 64.4207 152.996 64.5884 153.029 64.7498Z" fill="white"/>
<path d="M153.02 74.1633C153.018 74.3837 153.105 74.5958 153.262 74.7527C153.339 74.8311 153.432 74.8932 153.535 74.9357C153.589 74.958 153.645 74.9746 153.702 74.9854C153.753 74.9951 153.806 75 153.858 75C153.969 75 154.079 74.9781 154.181 74.9357C154.284 74.8932 154.376 74.8311 154.454 74.7527C154.533 74.6766 154.595 74.5857 154.638 74.4856C154.681 74.3852 154.702 74.2775 154.702 74.1686C154.702 74.0598 154.681 73.9521 154.638 73.8517C154.616 73.8009 154.59 73.7525 154.558 73.7071C154.528 73.6631 154.493 73.6219 154.454 73.5845C154.298 73.4276 154.086 73.3387 153.863 73.3373C153.641 73.3358 153.427 73.4221 153.269 73.5771C153.111 73.732 153.021 73.9428 153.02 74.1633Z" fill="white"/>
<path d="M154.515 66.1376H153.175V72.2928H154.515V66.1376Z" fill="white"/>
<path d="M159.143 71.5215C158.838 71.2212 158.599 70.8623 158.438 70.4672C158.278 70.072 158.201 69.6486 158.21 69.2226C158.198 68.7959 158.274 68.3712 158.435 67.9751C158.595 67.5789 158.836 67.2198 159.143 66.92C159.449 66.6131 159.815 66.3716 160.219 66.2105C160.623 66.0496 161.056 65.9725 161.491 65.984C162.055 65.969 162.613 66.1094 163.102 66.3897C163.591 66.6697 163.993 67.0789 164.262 67.5716L163.107 68.2343C162.956 67.9376 162.723 67.6904 162.434 67.5224C162.145 67.3542 161.814 67.2725 161.48 67.2869C161.223 67.2815 160.969 67.3277 160.731 67.4231C160.494 67.5184 160.278 67.6606 160.098 67.8411C159.746 68.2158 159.551 68.7089 159.551 69.2208C159.551 69.7327 159.746 70.2257 160.098 70.6005C160.278 70.7811 160.494 70.9234 160.731 71.0186C160.969 71.1139 161.223 71.1601 161.48 71.1546C161.817 71.1641 162.15 71.0806 162.442 70.9135C162.734 70.7462 162.973 70.5018 163.133 70.2074L164.288 70.8588C164.012 71.3521 163.606 71.7614 163.113 72.0431C162.62 72.3247 162.06 72.468 161.491 72.4576C161.056 72.4691 160.623 72.3919 160.219 72.2311C159.815 72.07 159.449 71.8285 159.143 71.5215Z" fill="white"/>
<path d="M170.517 66.1376H169.173V69.4361C169.173 70.6305 168.539 71.2071 167.595 71.2071C166.738 71.2071 166.202 70.7016 166.202 69.7806V66.1376H164.862V69.9341C164.862 71.5104 165.817 72.4689 167.248 72.4689C167.625 72.4956 168.002 72.4219 168.34 72.2554C168.679 72.0888 168.966 71.8354 169.173 71.5215V72.2928H170.517V66.1376Z" fill="white"/>
<path fill-rule="evenodd" clip-rule="evenodd" d="M177.044 66.9125C177.599 67.4476 177.949 68.1573 178.035 68.9204C178.12 69.6835 177.936 70.4524 177.512 71.0954C177.089 71.7384 176.454 72.2153 175.715 72.4448C174.977 72.6742 174.18 72.6418 173.463 72.3532C172.746 72.0643 172.152 71.5373 171.784 70.8621C171.415 70.187 171.295 69.4058 171.443 68.6522C171.591 67.8986 171.999 67.2197 172.597 66.7315C173.194 66.2434 173.944 65.9765 174.718 65.9765C175.15 65.9659 175.579 66.0434 175.979 66.2045C176.379 66.3655 176.741 66.6065 177.044 66.9125ZM174.707 71.1471C174.963 71.1526 175.218 71.1064 175.455 71.0109C175.485 70.9989 175.515 70.9859 175.545 70.9724C175.598 70.9477 175.65 70.9206 175.7 70.8914C175.842 70.8093 175.972 70.7091 176.088 70.593C176.447 70.2173 176.647 69.7195 176.647 69.2019C176.647 68.6846 176.447 68.1868 176.088 67.8111C175.718 67.456 175.222 67.2577 174.707 67.2577C174.191 67.2577 173.696 67.456 173.325 67.8111C172.966 68.1868 172.766 68.6846 172.766 69.2019C172.766 69.7195 172.966 70.2173 173.325 70.593C173.414 70.6813 173.51 70.7605 173.614 70.8294C173.722 70.9014 173.837 70.9623 173.959 71.0109C174.196 71.1064 174.451 71.1526 174.707 71.1471Z" fill="white"/>
<path d="M174.707 64.475L174.099 65.3249H172.831L174.05 63.7225H175.356L176.583 65.3249H175.318L174.707 64.475Z" fill="white"/>
<path d="M174.11 74.7415C173.956 74.5854 173.87 74.3757 173.87 74.1574C173.87 73.9389 173.956 73.7292 174.11 73.5733C174.227 73.4572 174.376 73.3782 174.538 73.3461C174.561 73.3415 174.584 73.3378 174.607 73.3351C174.636 73.3318 174.666 73.3302 174.695 73.33C174.716 73.3298 174.738 73.3305 174.759 73.332C174.848 73.338 174.936 73.3585 175.02 73.3927C175.173 73.4552 175.303 73.5612 175.395 73.6974C175.487 73.8334 175.536 73.9936 175.536 74.1574C175.536 74.3212 175.487 74.4812 175.395 74.6174C175.366 74.6607 175.333 74.7009 175.296 74.7377C175.266 74.7686 175.233 74.7969 175.197 74.8227C175.16 74.8499 175.121 74.874 175.08 74.8947C175.06 74.9046 175.04 74.9137 175.02 74.9221C174.867 74.9847 174.699 75.0009 174.538 74.9687C174.376 74.9366 174.227 74.8574 174.11 74.7415Z" fill="white"/>
<path d="M178.778 70.4672C178.938 70.8623 179.178 71.2212 179.482 71.5215C179.791 71.829 180.16 72.0702 180.566 72.23C180.973 72.3897 181.408 72.4647 181.845 72.4501C182.414 72.4614 182.975 72.3184 183.468 72.0367C183.961 71.755 184.367 71.3451 184.642 70.8513L183.487 70.2C183.327 70.4943 183.088 70.7387 182.796 70.906C182.504 71.0733 182.171 71.1566 181.834 71.1471C181.578 71.1526 181.323 71.1064 181.086 71.0111C180.98 70.9687 180.879 70.9171 180.783 70.857C180.663 70.7819 180.552 70.6934 180.452 70.593C180.103 70.217 179.909 69.7244 179.909 69.2133C179.909 68.7021 180.103 68.2096 180.452 67.8336C180.633 67.6531 180.848 67.5109 181.086 67.4156C181.323 67.3204 181.578 67.274 181.834 67.2794C182.168 67.2646 182.5 67.3462 182.789 67.5142C183.077 67.6824 183.311 67.9299 183.461 68.2268L184.601 67.5716C184.332 67.0787 183.931 66.6694 183.442 66.3891C182.953 66.1089 182.395 65.9686 181.83 65.984C181.395 65.9725 180.962 66.0496 180.558 66.2107C180.154 66.3716 179.788 66.6131 179.482 66.92C179.176 67.2198 178.935 67.5789 178.774 67.9751C178.614 68.3712 178.537 68.7959 178.55 69.2226C178.54 69.6486 178.617 70.072 178.778 70.4672Z" fill="white"/>
<path d="M190.497 68.635C191.452 68.8445 192.698 69.2378 192.672 70.5557C192.674 70.6272 192.672 70.6985 192.665 70.7694C192.66 70.823 192.652 70.8764 192.641 70.9292C192.632 70.9744 192.621 71.0192 192.608 71.0636C192.602 71.0859 192.595 71.108 192.587 71.1301C192.577 71.1623 192.565 71.1943 192.552 71.2259C192.536 71.2636 192.52 71.3007 192.501 71.3373C192.427 71.4866 192.33 71.623 192.214 71.7424C192.142 71.8168 192.063 71.8846 191.977 71.9448C191.471 72.2941 190.864 72.4715 190.248 72.4503C189.018 72.4503 188.112 71.9111 187.711 71.0124L188.867 70.346C188.96 70.6279 189.149 70.8696 189.4 71.0309C189.651 71.1923 189.95 71.2638 190.248 71.2334C190.958 71.2334 191.305 70.9974 191.305 70.5444C191.305 70.1475 190.78 69.9155 190.124 69.7544C189.191 69.5222 187.934 69.1517 187.961 67.8599C187.952 67.5977 188.005 67.3372 188.118 67.0995C188.23 66.8621 188.397 66.6542 188.606 66.4933C188.909 66.2739 189.255 66.1189 189.621 66.0376C189.987 65.9564 190.366 65.9507 190.735 66.0209C191.104 66.0911 191.454 66.2357 191.763 66.4458C192.073 66.656 192.336 66.927 192.536 67.2421L191.403 67.8674C191.307 67.6445 191.143 67.457 190.933 67.3314C190.724 67.2059 190.481 67.1484 190.237 67.1672C189.727 67.1672 189.327 67.3882 189.327 67.8188C189.327 68.2493 189.852 68.4515 190.497 68.635Z" fill="white"/>
<path d="M206.322 68.5263V72.3078H204.978V68.6612C204.978 67.7401 204.442 67.2346 203.585 67.2346C202.641 67.2346 202.007 67.8113 202.007 69.0056V72.3078H200.663V66.1376H202.007V66.9239C202.214 66.61 202.501 66.3566 202.839 66.19C202.925 66.1482 203.012 66.1121 203.102 66.082C203.155 66.0641 203.21 66.0483 203.264 66.0348C203.379 66.0061 203.496 65.9869 203.615 65.9776C203.72 65.9694 203.826 65.969 203.932 65.9765C205.355 65.9765 206.322 66.935 206.322 68.5263Z" fill="white"/>
<path fill-rule="evenodd" clip-rule="evenodd" d="M213.721 66.1376H212.403L212.399 67.0399C212.16 66.6941 211.836 66.4143 211.458 66.227C211.079 66.0396 210.659 65.9509 210.236 65.9692C209.82 65.9606 209.406 66.0396 209.022 66.2008C208.638 66.3622 208.293 66.6023 208.009 66.9052C207.713 67.1995 207.48 67.5504 207.325 67.9365C207.169 68.3226 207.094 68.7359 207.103 69.1517C207.097 69.567 207.173 69.9795 207.329 70.365C207.484 70.7508 207.716 71.102 208.009 71.3981C208.296 71.6963 208.642 71.9321 209.025 72.0908C209.409 72.2493 209.821 72.327 210.236 72.3192C210.659 72.3375 211.079 72.2488 211.458 72.0614C211.836 71.874 212.16 71.5943 212.399 71.2484V71.9972C212.399 73.068 211.701 73.6971 210.546 73.6971C209.663 73.6971 209.055 73.3749 208.73 72.7497L207.575 73.4124C208.111 74.4159 209.093 74.9101 210.523 74.9101C211.344 74.9347 212.147 74.6693 212.788 74.1612C213.101 73.8987 213.349 73.5676 213.51 73.194C213.672 72.8203 213.744 72.4144 213.721 72.0084V66.1376ZM210.716 71.0709C210.62 71.0824 210.522 71.0868 210.425 71.0837C210.164 71.0897 209.904 71.0438 209.661 70.9488C209.51 70.8897 209.368 70.8126 209.237 70.7192C209.156 70.6619 209.08 70.5985 209.009 70.5296C208.651 70.1586 208.452 69.665 208.452 69.1517C208.452 68.6381 208.651 68.1445 209.009 67.7738C209.196 67.5922 209.418 67.4496 209.661 67.3546C209.775 67.31 209.892 67.2761 210.012 67.2535C210.148 67.2277 210.286 67.2164 210.425 67.2197C210.685 67.2111 210.944 67.2559 211.186 67.3513C211.427 67.4465 211.646 67.5904 211.829 67.7738C212.197 68.1396 212.404 68.635 212.404 69.1517C212.404 69.6683 212.197 70.1638 211.829 70.5296C211.646 70.7128 211.427 70.8566 211.186 70.9521C211.034 71.0117 210.877 71.0515 210.716 71.0709Z" fill="white"/>
<path d="M173.269 34.2979L165.511 42.3625L173.269 52.4268H166.055L160.509 44.2646V52.4268H154.9V26.1206H155.655C156.293 26.1183 156.925 26.2409 157.515 26.4817C158.104 26.7227 158.64 27.077 159.092 27.5241C159.543 27.9713 159.901 28.5026 160.144 29.0874C160.387 29.6724 160.511 30.2991 160.509 30.9319V40.7638L166.394 34.2979H173.269Z" fill="white"/>
<path d="M14.6452 51.6032C13.8979 52.1394 13.0019 52.4334 12.0797 52.4455H10.4074L-6.10352e-05 26.1843H6.71175L13.3103 42.868L19.9164 26.1993H25.4655C25.4655 26.1993 18.5197 43.6243 16.2547 49.4502C15.9546 50.3151 15.3925 51.067 14.6452 51.6032Z" fill="white"/>
<path d="M61.4065 34.2902V38.521H58.4432V45.1106C58.4422 45.4505 58.5088 45.7872 58.6393 46.1015C58.7697 46.416 58.9614 46.7015 59.2034 46.9423C59.4454 47.1829 59.7328 47.3739 60.0494 47.5043C60.3659 47.6344 60.7052 47.7015 61.0479 47.7015L61.4027 47.679V52.4005L59.5757 52.4566C57.8919 52.4948 56.2614 51.8705 55.0405 50.7198C53.8196 49.5692 53.1076 47.986 53.0602 46.3163V38.521H50.3649V34.2902H53.0602V29.7673H58.4507V34.2902H61.4065Z" fill="white"/>
<path fill-rule="evenodd" clip-rule="evenodd" d="M35.5408 45.0284H49.357C49.4354 44.5527 49.482 44.0724 49.4966 43.5907C49.5387 42.3088 49.3208 41.0314 48.8559 39.8345C48.3909 38.6376 47.6884 37.5455 46.79 36.623C45.9083 35.7012 44.8466 34.9674 43.6697 34.4657C42.4927 33.9642 41.2252 33.7056 39.9442 33.7056C38.6632 33.7056 37.3957 33.9642 36.2187 34.4657C35.0418 34.9674 33.9801 35.7012 33.0984 36.623C31.3406 38.453 30.3655 40.8868 30.3775 43.4145C30.3894 45.9419 31.3876 48.3668 33.1626 50.1804C34.0433 51.0926 35.1043 51.8149 36.2793 52.3019C37.4543 52.789 38.7181 53.0303 39.9914 53.0109C41.9623 53.0281 43.8861 52.4137 45.4764 51.2586C47.0204 50.1156 48.1999 48.5558 48.8738 46.7657H43.7361C43.3531 47.4397 42.7982 48.0019 42.1271 48.3962C41.4559 48.7906 40.6921 49.0028 39.9121 49.0121C38.811 49.0184 37.7482 48.611 36.9373 47.8721C36.1264 47.1331 35.6275 46.1172 35.5408 45.0284ZM42.7007 38.8473C43.4826 39.4963 44.0095 40.3974 44.1891 41.3929H35.6352C35.8148 40.3974 36.3416 39.4963 37.1235 38.8473C37.9054 38.1983 38.8925 37.8425 39.9121 37.8425C40.9317 37.8425 41.9189 38.1983 42.7007 38.8473Z" fill="white"/>
<path d="M22.925 39.0939C22.923 38.4616 23.0471 37.835 23.2902 37.2504C23.5332 36.6657 23.8905 36.1347 24.3413 35.6875C24.7921 35.2403 25.3277 34.886 25.9171 34.6449C26.5065 34.4039 27.1382 34.2807 27.7758 34.2827H28.3118V52.4566H22.9363L22.925 39.0939Z" fill="white"/>
<path d="M63.9502 37.2495C63.7069 37.8345 63.5826 38.4612 63.5846 39.0939L63.5997 52.4566H68.9677V34.2827H68.4392C67.8013 34.2803 67.1692 34.403 66.5794 34.6438C65.9895 34.8847 65.4535 35.239 65.0023 35.6862C64.551 36.1334 64.1935 36.6646 63.9502 37.2495Z" fill="white"/>
<path d="M83.1878 52.4528V41.4676C83.1902 41.0841 83.1161 40.7038 82.9694 40.3488C82.8228 39.9939 82.6067 39.6713 82.3336 39.3998C82.0605 39.1281 81.7358 38.9129 81.3783 38.7667C81.0208 38.6202 80.6376 38.5457 80.2509 38.5471C79.8481 38.5329 79.4466 38.6001 79.071 38.7449C78.6954 38.8899 78.3535 39.1091 78.0662 39.3895C77.7789 39.6698 77.5523 40.0055 77.4003 40.3757C77.2482 40.7457 77.1739 41.1428 77.1819 41.5424V52.4378H71.7233V34.3202H76.827V36.2484H76.9101C77.7454 35.1699 78.9003 34.378 80.2125 33.9838C81.5248 33.5895 82.9286 33.6127 84.2268 34.05C85.5251 34.4873 86.6528 35.3169 87.4515 36.4222C88.2502 37.5277 88.6799 38.8533 88.6803 40.2133V52.4528H83.1878Z" fill="white"/>
<path fill-rule="evenodd" clip-rule="evenodd" d="M127.101 36.2334V34.3052H132.499V52.4266H127.094V50.4648H127.03C126.535 51.3734 125.733 52.08 124.765 52.4603C123.816 52.8588 122.794 53.0588 121.764 53.0482C119.043 53.0482 116.835 52.1083 115.139 50.2288C113.508 48.3942 112.693 46.1041 112.693 43.3585C112.693 40.6477 113.524 38.3738 115.188 36.5367C116.006 35.612 117.019 34.8772 118.156 34.3842C119.292 33.8911 120.524 33.652 121.764 33.6836C122.791 33.6717 123.809 33.8772 124.75 34.2866C125.7 34.6796 126.501 35.3612 127.037 36.2334H127.101ZM124.348 47.6445C124.89 47.416 125.38 47.0812 125.788 46.6607V46.6569C126.616 45.7655 127.061 44.5891 127.03 43.3772C127.05 42.7717 126.949 42.1684 126.733 41.6016C126.518 41.0349 126.191 40.5161 125.773 40.0749C125.365 39.6473 124.87 39.31 124.322 39.085C123.774 38.8597 123.184 38.7519 122.59 38.7681C121.996 38.7533 121.405 38.8683 120.86 39.1051C120.316 39.342 119.83 39.6947 119.438 40.1385C118.622 41.0442 118.188 42.2265 118.227 43.4408C118.201 44.6366 118.652 45.794 119.484 46.6607C119.892 47.0812 120.381 47.416 120.923 47.6445C121.465 47.873 122.047 47.9907 122.636 47.9907C123.224 47.9907 123.807 47.873 124.348 47.6445Z" fill="white"/>
<path d="M146.712 52.4528V41.4676C146.715 41.0841 146.64 40.7038 146.494 40.3488C146.347 39.9939 146.131 39.6713 145.858 39.3998C145.585 39.1281 145.26 38.9129 144.903 38.7667C144.545 38.6202 144.162 38.5457 143.775 38.5471C143.372 38.5329 142.971 38.6001 142.595 38.7449C142.22 38.8899 141.878 39.1091 141.59 39.3895C141.303 39.6698 141.077 40.0055 140.925 40.3757C140.773 40.7457 140.698 41.1428 140.706 41.5424V52.4378H135.233V34.3202H140.336V36.2484H140.427C141.262 35.1699 142.417 34.378 143.729 33.9838C145.042 33.5895 146.445 33.6127 147.744 34.05C149.042 34.4873 150.17 35.3169 150.968 36.4222C151.767 37.5277 152.197 38.8533 152.197 40.2133V52.4528H146.712Z" fill="white"/>
<path fill-rule="evenodd" clip-rule="evenodd" d="M106.853 38.3638C110.386 36.4581 110.171 33.2081 109.808 31.411C109.355 29.1646 106.951 26.1693 101.526 26.2104H91.4133V52.453H101.708C108.359 52.453 111.394 48.6302 111.311 44.4967C111.273 42.6545 110.745 39.5694 106.853 38.3638ZM97.5815 31.0852H101.564C101.935 31.0708 102.306 31.13 102.654 31.2595C103.002 31.3889 103.32 31.5862 103.59 31.8394C103.86 32.0926 104.077 32.3968 104.227 32.7341C104.377 33.0714 104.457 33.435 104.463 33.8035C104.463 35.4696 102.953 36.533 101.564 36.5255H97.5815V31.0852ZM102.632 47.6193H97.5551V41.359H102.53C102.952 41.3395 103.372 41.404 103.768 41.5488C104.163 41.6936 104.525 41.9157 104.833 42.2018C105.14 42.4879 105.386 42.8325 105.557 43.2148C105.727 43.5973 105.819 44.0097 105.826 44.4276C105.832 44.8457 105.755 45.2609 105.597 45.6485C105.439 46.0362 105.204 46.3883 104.906 46.6843C104.608 46.9801 104.253 47.2138 103.863 47.3712C103.472 47.5286 103.054 47.6065 102.632 47.6006V47.6193Z" fill="white"/>
</svg>
