<svg width="48" height="48" viewBox="0 0 48 48" fill="none" xmlns="http://www.w3.org/2000/svg">
<g clip-path="url(#clip0_3535_18588)">
<path d="M0 24C0 37.2548 10.7452 48 24 48C37.2548 48 48 37.2548 48 24C48 10.7452 37.2548 0 24 0C10.7452 0 0 10.7452 0 24Z" fill="#2962FF"/>
<path d="M14.7475 1.84844C11.3951 5.48394 9 10.9354 9 15.6C9 23.1448 10.043 27.5619 13.1362 31.8764C13.3769 32.2118 13.534 32.604 13.5552 33.0152C13.6031 33.9456 13.4115 35.6505 11.7345 37.1848C11.5539 37.3497 11.6687 37.6517 11.9127 37.6617C12.9624 37.7074 15.0807 37.6461 17.258 36.6845C17.8786 36.4104 18.5851 36.4583 19.1846 36.777C22.8762 38.737 27.1996 39 31.2857 39C36.3527 39 41.406 37.9041 44.8346 35.9212C46.8486 32.409 48 28.339 48 24C48 10.7452 37.2548 0 24 0C20.7206 0 17.5949 0.65772 14.7475 1.84844Z" fill="white"/>
<path d="M14.8501 14.4858H23.7644V14.7644C23.7644 15.0843 23.6387 15.3651 23.457 15.6001H23.4858L17.2784 22.843H23.2073V23.9573C23.2073 24.2647 22.9575 24.5144 22.6501 24.5144H14.293V24.2358C14.293 23.9159 14.4187 23.6352 14.6004 23.4001H14.5715L20.779 16.1573H14.8501V14.4858Z" fill="#2962FF"/>
<path d="M34.0715 24.5144H35.1858V14.4858H33.5144V23.9573C33.5144 24.0285 33.5275 24.0966 33.5519 24.1591C33.5737 24.2146 33.6036 24.2658 33.6412 24.3109C33.6912 24.3719 33.7543 24.4219 33.8256 24.4573C33.8996 24.494 33.9834 24.5144 34.0715 24.5144Z" fill="#2962FF"/>
<path fill-rule="evenodd" clip-rule="evenodd" d="M36.8573 20.3358C36.8573 22.639 38.7327 24.5144 41.0358 24.5144C43.3389 24.5144 45.2144 22.639 45.2144 20.3358C45.2144 18.0327 43.3389 16.1573 41.0358 16.1573C38.7327 16.1573 36.8573 18.0327 36.8573 20.3358ZM38.5287 20.3358C38.5287 18.9541 39.6539 17.8287 41.0358 17.8287C42.4178 17.8287 43.543 18.9541 43.543 20.3358C43.543 21.7175 42.4178 22.843 41.0358 22.843C39.6539 22.843 38.5287 21.7175 38.5287 20.3358Z" fill="#2962FF"/>
<path fill-rule="evenodd" clip-rule="evenodd" d="M30.1715 16.4358V17.0142C29.4708 16.4837 28.6084 16.1573 27.6644 16.1573C25.3613 16.1573 23.4858 18.0327 23.4858 20.3358C23.4858 22.639 25.3613 24.5144 27.6644 24.5144C28.6084 24.5144 29.4708 24.188 30.1715 23.6575V23.9573C30.1715 24.2647 30.4213 24.5144 30.7287 24.5144H31.843V16.4358H30.1715ZM27.6644 22.843C26.2824 22.843 25.1573 21.7175 25.1573 20.3358C25.1573 18.9541 26.2824 17.8287 27.6644 17.8287C29.0464 17.8287 30.1715 18.9541 30.1715 20.3358C30.1715 21.7175 29.0464 22.843 27.6644 22.843Z" fill="#2962FF"/>
</g>
<defs>
<clipPath id="clip0_3535_18588">
<rect width="48" height="48" fill="white"/>
</clipPath>
</defs>
</svg>
