<svg width="17" height="16" viewBox="0 0 17 16" fill="none" xmlns="http://www.w3.org/2000/svg">
<path d="M6.25 16C3.89114 15.9863 1.93994 11.1253 1.93994 8.64966C1.93994 4.60578 4.94497 3.72047 6.10308 3.72047C6.62499 3.72047 7.18229 3.92738 7.67383 4.11047C8.01757 4.23819 8.37306 4.37003 8.57078 4.37003C8.68912 4.37003 8.968 4.25788 9.21422 4.15947C9.73932 3.94844 10.3927 3.68616 11.1536 3.68616C11.155 3.68616 11.1568 3.68616 11.1581 3.68616C11.7263 3.68616 13.449 3.81203 14.4847 5.38216L14.7273 5.75019L14.3781 6.01616C13.8793 6.3961 12.9692 7.08916 12.9692 8.462C12.9692 10.088 13.9999 10.7133 14.4951 11.014C14.7137 11.1468 14.9399 11.2837 14.9399 11.583C14.9399 11.7785 13.3946 15.9757 11.1504 15.9757C10.6013 15.9757 10.2132 15.8091 9.87079 15.6622C9.52437 15.5134 9.22552 15.3852 8.73171 15.3852C8.48141 15.3852 8.16488 15.5047 7.82979 15.6315C7.37186 15.804 6.85354 16 6.26541 16H6.25Z" fill="white"/>
<path d="M11.3914 0C11.4499 2.12737 9.94277 3.60325 8.43746 3.51069C8.18941 1.81297 9.94259 0 11.3914 0Z" fill="white"/>
</svg>
