<svg width="16" height="16" viewBox="0 0 16 16" fill="none" xmlns="http://www.w3.org/2000/svg">
<path d="M2.02406 5.18262C1.73898 5.18262 1.4971 5.27875 1.29827 5.47103C1.09944 5.6633 1 5.89402 1 6.1633V10.2979C1 10.5739 1.09941 10.8076 1.29827 10.9999C1.4971 11.1922 1.73898 11.2883 2.02406 11.2883C2.30893 11.2883 2.54935 11.1922 2.74509 10.9999C2.94045 10.8076 3.0384 10.5739 3.0384 10.2979V6.1633C3.0384 5.89399 2.93899 5.6633 2.74013 5.47103C2.54127 5.27875 2.30253 5.18262 2.02406 5.18262Z" fill="white"/>
<path d="M10.2573 1.47102L10.9633 0.21162C11.0097 0.128243 10.9932 0.0643062 10.9137 0.0193481C10.8275 -0.0194188 10.7612 0.00022502 10.7149 0.076891L9.99904 1.34636C9.36914 1.07705 8.70291 0.942146 8.00037 0.942146C7.29768 0.942146 6.63139 1.07708 6.00173 1.34636L5.28584 0.076891C5.23932 0.00022502 5.17306 -0.0192452 5.08701 0.0193481C5.00737 0.0645087 4.99089 0.128243 5.03741 0.21162L5.74342 1.47102C5.02754 1.82406 4.45738 2.31574 4.03315 2.94712C3.60893 3.57885 3.39673 4.26919 3.39673 5.01936H12.594C12.594 4.26936 12.3818 3.57899 11.9576 2.94712C11.5333 2.31574 10.9665 1.82406 10.2573 1.47102ZM6.17567 3.30285C6.09932 3.37685 6.00813 3.41368 5.90213 3.41368C5.79593 3.41368 5.7066 3.37685 5.63372 3.30285C5.56084 3.22919 5.5244 3.14136 5.5244 3.03851C5.5244 2.93601 5.56084 2.848 5.63372 2.77417C5.7066 2.70052 5.79614 2.66369 5.90213 2.66369C6.00813 2.66369 6.09932 2.70052 6.17567 2.77417C6.25184 2.84818 6.2901 2.93601 6.2901 3.03851C6.28989 3.14119 6.25166 3.22919 6.17567 3.30285ZM10.3666 3.30285C10.2936 3.37685 10.2041 3.41368 10.0982 3.41368C9.99201 3.41368 9.90085 3.37685 9.82465 3.30285C9.74834 3.22919 9.71025 3.14136 9.71025 3.03851C9.71025 2.93601 9.74834 2.848 9.82465 2.77417C9.90085 2.70052 9.99201 2.66369 10.0982 2.66369C10.2042 2.66369 10.2936 2.70052 10.3666 2.77417C10.4396 2.84818 10.4759 2.93601 10.4759 3.03851C10.4759 3.14119 10.4395 3.22919 10.3666 3.30285Z" fill="white"/>
<path d="M3.43604 11.7691C3.43604 12.0643 3.54203 12.3141 3.75405 12.5192C3.96626 12.7242 4.22462 12.8267 4.52962 12.8267H5.26547L5.27555 15.0096C5.27555 15.2853 5.37496 15.5193 5.57379 15.7116C5.77262 15.9039 6.01139 16.0001 6.28968 16.0001C6.57458 16.0001 6.81661 15.9039 7.01546 15.7116C7.21432 15.5193 7.31374 15.2853 7.31374 15.0096V12.8269H8.68586V15.0096C8.68586 15.2853 8.78524 15.5193 8.9841 15.7116C9.18296 15.9039 9.42478 16.0001 9.70989 16.0001C9.99479 16.0001 10.2368 15.9039 10.4357 15.7116C10.6345 15.5193 10.7339 15.2853 10.7339 15.0096V12.8269H11.4797C11.7779 12.8269 12.033 12.7244 12.2454 12.5193C12.4574 12.3143 12.5634 12.0644 12.5634 11.7693V5.36523H3.43604V11.7691Z" fill="white"/>
<path d="M13.9761 5.18262C13.6976 5.18262 13.459 5.27734 13.2602 5.46625C13.0613 5.65552 12.9619 5.888 12.9619 6.1633V10.2979C12.9619 10.5739 13.0613 10.8076 13.2602 10.9999C13.459 11.1922 13.6978 11.2883 13.9761 11.2883C14.261 11.2883 14.503 11.1922 14.7019 10.9999C14.9007 10.8076 15.0001 10.5739 15.0001 10.2979V6.1633C15.0001 5.88797 14.9007 5.65552 14.7019 5.46625C14.503 5.27734 14.261 5.18262 13.9761 5.18262Z" fill="white"/>
</svg>
