<svg width="24" height="24" viewBox="0 0 24 24" fill="none" xmlns="http://www.w3.org/2000/svg">
<path d="M3.03293 10L20.9671 10C21.9872 10 22.3878 8.64858 21.539 8.07059L13.1438 2.35375C12.4512 1.88208 11.5488 1.88208 10.8562 2.35375L2.46102 8.07059C1.61224 8.64858 2.01282 10 3.03293 10Z" fill="white"/>
<path d="M5.5 11.5H8.5V16.5H5.5V11.5Z" fill="white"/>
<path d="M18.5 11.5H15.5V16.5H18.5V11.5Z" fill="white"/>
<path d="M10.5 11.5H13.5V16.5H10.5V11.5Z" fill="white"/>
<path d="M20.2764 18.5528C20.107 18.214 19.7607 18 19.382 18L4.61803 18C4.23926 18 3.893 18.214 3.72361 18.5528L2.72361 20.5528C2.39116 21.2177 2.87465 22 3.61803 22H20.382C21.1253 22 21.6088 21.2177 21.2764 20.5528L20.2764 18.5528Z" fill="white"/>
</svg>
