<svg width="24" height="24" viewBox="0 0 24 24" fill="none" xmlns="http://www.w3.org/2000/svg">
<path fill-rule="evenodd" clip-rule="evenodd" d="M9.06973 9.07745H14.9303V14.2408C17.0706 14.5685 19.1403 15.256 21.0521 16.2743C21.7676 14.7477 22.0867 13.0647 21.9798 11.3816C21.873 9.69845 21.3437 8.06957 20.4409 6.64598C19.5381 5.22238 18.2911 4.05016 16.8156 3.23799C15.34 2.42582 13.6836 2 12 2C10.3164 2 8.65999 2.42582 7.18442 3.23799C5.70886 4.05016 4.46189 5.22238 3.55912 6.64598C2.65635 8.06957 2.127 9.69845 2.02016 11.3816C1.91331 13.0647 2.23244 14.7477 2.94793 16.2743C4.85978 15.2563 6.92944 14.5688 9.06973 14.2408V9.07745Z" fill="white"/>
<path fill-rule="evenodd" clip-rule="evenodd" d="M12 22C13.6592 22.0008 15.2926 21.5881 16.7529 20.7991C18.2132 20.0101 19.4547 18.8696 20.3654 17.4803C17.7858 16.1209 14.9148 15.4106 12 15.4106C9.08523 15.4106 6.21421 16.1209 3.6346 17.4803C4.54462 18.8703 5.78592 20.0113 7.24642 20.8004C8.70691 21.5895 10.3406 22.0018 12 22Z" fill="white"/>
</svg>
