<svg width="24" height="24" viewBox="0 0 24 24" fill="none" xmlns="http://www.w3.org/2000/svg">
<path d="M22.002 21.25C22.002 21.66 21.662 22 21.252 22H2.75195C2.34195 22 2.00195 21.66 2.00195 21.25C2.00195 20.84 2.34195 20.5 2.75195 20.5H21.252C21.662 20.5 22.002 20.84 22.002 21.25Z" fill="white"/>
<path d="M15.3919 4.52001L4.65189 15.26C4.24189 15.67 3.58189 15.67 3.18189 15.26H3.17189C1.78189 13.86 1.78189 11.6 3.17189 10.21L10.3219 3.06001C11.7219 1.66001 13.9819 1.66001 15.3819 3.06001C15.7919 3.45001 15.7919 4.12001 15.3919 4.52001Z" fill="white"/>
<path d="M20.8219 8.49001L17.7719 5.44001C17.3619 5.03001 16.7019 5.03001 16.3019 5.44001L5.56189 16.18C5.15189 16.58 5.15189 17.24 5.56189 17.65L8.61189 20.71C10.0119 22.1 12.2719 22.1 13.6719 20.71L20.8119 13.56C22.2319 12.16 22.2319 9.89001 20.8219 8.49001ZM12.7619 17.52L11.5519 18.74C11.3019 18.99 10.8919 18.99 10.6319 18.74C10.3819 18.49 10.3819 18.08 10.6319 17.82L11.8519 16.6C12.0919 16.36 12.5119 16.36 12.7619 16.6C13.0119 16.85 13.0119 17.28 12.7619 17.52ZM16.7319 13.55L14.2919 16C14.0419 16.24 13.6319 16.24 13.3719 16C13.1219 15.75 13.1219 15.34 13.3719 15.08L15.8219 12.63C16.0619 12.39 16.4819 12.39 16.7319 12.63C16.9819 12.89 16.9819 13.3 16.7319 13.55Z" fill="white"/>
</svg>
