<svg width="24" height="24" viewBox="0 0 24 24" fill="none" xmlns="http://www.w3.org/2000/svg">
<path d="M11.5 21.25C6.12614 21.25 1.75 16.8739 1.75 11.5C1.75 6.12614 6.12614 1.75 11.5 1.75C16.8739 1.75 21.25 6.12614 21.25 11.5C21.25 16.8739 16.8739 21.25 11.5 21.25ZM11.5 2.25C6.39349 2.25 2.25 6.40423 2.25 11.5C2.25 16.5958 6.39349 20.75 11.5 20.75C16.6065 20.75 20.75 16.5958 20.75 11.5C20.75 6.40423 16.6065 2.25 11.5 2.25Z" fill="white" stroke="white"/>
<path d="M22.0004 22.2504C21.9359 22.2504 21.8753 22.2282 21.824 22.1769L19.824 20.1769C19.7292 20.0821 19.7292 19.9187 19.824 19.824C19.9187 19.7292 20.0821 19.7292 20.1769 19.824L22.1769 21.824C22.2716 21.9187 22.2716 22.0821 22.1769 22.1769C22.1256 22.2282 22.065 22.2504 22.0004 22.2504Z" fill="white" stroke="white"/>
</svg>
