<svg width="24" height="24" viewBox="0 0 24 24" fill="none" xmlns="http://www.w3.org/2000/svg">
<path fill-rule="evenodd" clip-rule="evenodd" d="M8.75 5.75C8.75 4.50736 9.75736 3.5 11 3.5H13C14.2426 3.5 15.25 4.50736 15.25 5.75V6.75H8.75V5.75ZM7.25 6.75V5.75C7.25 3.67893 8.92893 2 11 2H13C15.0711 2 16.75 3.67893 16.75 5.75V6.75H18C20.2091 6.75 22 8.54086 22 10.75V11.9229C21.3061 12.2571 20.4354 12.6572 19.4703 13.057C17.6735 13.8012 15.6138 14.5166 13.7772 14.8318C13.4445 14.1892 12.7736 13.75 12 13.75C11.2264 13.75 10.5554 14.1892 10.2228 14.8318C8.38623 14.5166 6.32646 13.8012 4.52963 13.057C3.56459 12.6572 2.69385 12.2572 2 11.9229V10.75C2 8.54086 3.79086 6.75 6 6.75H7.25ZM20.0444 14.4428C20.7572 14.1475 21.4193 13.8525 22 13.5824V18.75C22 20.9591 20.2091 22.75 18 22.75H6C3.79086 22.75 2 20.9591 2 18.75V13.5824C2.58068 13.8525 3.2428 14.1475 3.95561 14.4428C5.78817 15.2019 8.02159 15.9907 10.0851 16.3291C10.3334 17.1513 11.0968 17.75 12 17.75C12.9032 17.75 13.6666 17.1513 13.9149 16.3291C15.9784 15.9907 18.2118 15.2019 20.0444 14.4428Z" fill="white"/>
</svg>
