<svg width="24" height="24" viewBox="0 0 24 24" fill="none" xmlns="http://www.w3.org/2000/svg">
<path fill-rule="evenodd" clip-rule="evenodd" d="M18.7501 2C18.3359 2 18.0001 2.33579 18.0001 2.75C18.0001 3.16421 18.3359 3.5 18.7501 3.5H19.8626C16.1182 6.48616 13.2689 8.37721 10.5597 9.63373C7.7623 10.9312 5.07872 11.5686 1.65502 12.006C1.24415 12.0585 0.953629 12.4342 1.00613 12.8451C1.05863 13.2559 1.43427 13.5465 1.84514 13.494C5.36357 13.0444 8.20922 12.3774 11.1909 10.9945C14.1062 9.64233 17.1171 7.62162 21.0001 4.51111V5.75C21.0001 6.16421 21.3359 6.5 21.7501 6.5C22.1643 6.5 22.5001 6.16421 22.5001 5.75V3.75C22.5001 2.7835 21.7166 2 20.7501 2H18.7501ZM21.7501 10.75C21.7501 9.64543 20.8547 8.75 19.7501 8.75C18.6456 8.75 17.7501 9.64543 17.7501 10.75V20.75C17.7501 21.8546 18.6456 22.75 19.7501 22.75C20.8547 22.75 21.7501 21.8546 21.7501 20.75V10.75ZM5.75012 18.75C5.75012 17.6454 4.85469 16.75 3.75012 16.75C2.64555 16.75 1.75012 17.6454 1.75012 18.75L1.75012 20.75C1.75012 21.8546 2.64555 22.75 3.75012 22.75C4.85469 22.75 5.75012 21.8546 5.75012 20.75V18.75ZM11.7501 12.75C12.8547 12.75 13.7501 13.6454 13.7501 14.75V20.75C13.7501 21.8546 12.8547 22.75 11.7501 22.75C10.6456 22.75 9.75012 21.8546 9.75012 20.75V14.75C9.75012 13.6454 10.6456 12.75 11.7501 12.75Z" fill="white"/>
</svg>
