<svg width="21" height="22" viewBox="0 0 21 22" fill="#005993" xmlns="http://www.w3.org/2000/svg">
<path d="M10.0215 19.296C5.33856 19.296 1.52507 15.4825 1.52507 10.7996C1.52507 6.1167 5.33856 2.30321 10.0215 2.30321C14.7044 2.30321 18.5179 6.1167 18.5179 10.7996C18.5179 15.4825 14.7044 19.296 10.0215 19.296ZM10.0215 2.73892C5.57153 2.73892 1.96078 6.35903 1.96078 10.7996C1.96078 15.2402 5.57153 18.8603 10.0215 18.8603C14.4714 18.8603 18.0822 15.2402 18.0822 10.7996C18.0822 6.35903 14.4714 2.73892 10.0215 2.73892Z" fill="#292D32" stroke="#005993" stroke-width="0.871427"/>
<path d="M19.1716 20.1675C19.1153 20.1675 19.0625 20.1481 19.0178 20.1034L17.275 18.3605C17.1924 18.278 17.1924 18.1355 17.275 18.053C17.3575 17.9704 17.4999 17.9704 17.5825 18.053L19.3254 19.7958C19.4079 19.8784 19.4079 20.0208 19.3254 20.1034C19.2807 20.1481 19.2278 20.1675 19.1716 20.1675Z" fill="#292D32" stroke="#005993" stroke-width="0.871427"/>
</svg>
