<svg width="24" height="24" viewBox="0 0 24 24" fill="none" xmlns="http://www.w3.org/2000/svg">
<path fill-rule="evenodd" clip-rule="evenodd" d="M10.7982 1.31545C8.73154 0.761695 6.65659 2.09925 6.09777 4.18476L5.24274 7.3758C5.37872 7.36046 5.51712 7.35258 5.65758 7.35258H15.5623C17.7019 7.35258 19.36 9.18159 19.36 11.3407V17.4995C20.2934 16.987 21.0263 16.0854 21.3253 14.9696L23.0015 8.71409C23.5603 6.62858 22.4321 4.43275 20.3655 3.87899L10.7982 1.31545Z" fill="#005993"/>
<path opacity="0.4" fill-rule="evenodd" clip-rule="evenodd" d="M4.6576 8.3526C2.51805 8.3526 0.859985 10.1816 0.859985 12.3407V12.46H18.36V12.3407C18.36 10.1816 16.7019 8.3526 14.5624 8.3526H4.6576ZM18.36 13.96H0.859985V18.8169C0.859985 20.976 2.51805 22.805 4.6576 22.805H14.5624C16.7019 22.805 18.36 20.976 18.36 18.8169V13.96Z" fill="#005993"/>
</svg>
