<svg width="65" height="65" viewBox="0 0 65 65" fill="none" xmlns="http://www.w3.org/2000/svg">
<path d="M52.4402 17.7992C51.7027 17.1464 50.9872 16.5131 49.1842 16.5131H46.1839L14.541 16.7021C11.912 16.7021 8.99187 15.709 9.00002 14.7181C9.00197 14.478 9.05475 14.2411 9.1549 14.0229C9.25504 13.8047 9.40027 13.6102 9.58102 13.4521C11.2751 11.8895 15.8537 11.9812 16.3457 12.0131C26.684 12.0131 37.684 12.0131 48.534 12.0131C49.234 11.96 50.0376 12.2494 50.6209 12.64C52.1194 13.6433 52.7329 16.3396 52.6842 18.0131C52.6017 17.9421 52.5208 17.8706 52.4402 17.7992Z" fill="#005993"/>
<path d="M39.134 34.5232C39.0711 33.6805 39.1907 32.8342 39.4848 32.0421C39.7788 31.2499 40.2404 30.5305 40.8379 29.933C41.4353 29.3355 42.1547 28.874 42.9469 28.5799C43.7391 28.2859 44.5854 28.1662 45.428 28.2292H53.328V21.9782C53.328 19.8572 50.9 18.1132 48.779 18.1132H13.1C12.2713 18.1132 11.684 18.0131 10.8946 17.8107C10.1886 17.5574 9.54326 17.1594 9 16.6422V47.7252C9 48.9252 9.547 51.0772 10.437 51.7252C11.1607 52.2996 12.0453 52.6344 12.968 52.6832H48.813C50.934 52.6832 53.362 50.9732 53.362 48.8182V41.1182H45.462C41.562 41.1582 39.134 38.3532 39.134 34.5232Z" fill="#005993"/>
<path d="M53.087 27.2901H44.261C42.3971 27.2917 40.6101 28.0328 39.2921 29.3506C37.9741 30.6684 37.2328 32.4553 37.231 34.3191C37.231 38.2191 40.364 42.1131 44.261 42.1131H53.087C53.68 42.0684 54.2373 41.8126 54.6579 41.392C55.0784 40.9715 55.3342 40.4142 55.379 39.8211V28.8211C55.38 27.9771 54.231 27.1371 53.087 27.2901Z" fill="#D71049"/>
<path d="M47.184 32.0131C46.5906 32.0131 46.0106 32.1891 45.5173 32.5187C45.0239 32.8484 44.6394 33.3169 44.4123 33.8651C44.1853 34.4132 44.1258 35.0165 44.2416 35.5984C44.3574 36.1803 44.6431 36.7149 45.0626 37.1344C45.4822 37.554 46.0167 37.8397 46.5987 37.9555C47.1806 38.0712 47.7838 38.0118 48.332 37.7848C48.8802 37.5577 49.3487 37.1732 49.6784 36.6798C50.008 36.1865 50.184 35.6065 50.184 35.0131C50.182 34.2181 49.8653 33.4562 49.3031 32.894C48.7409 32.3318 47.979 32.0151 47.184 32.0131Z" fill="white"/>
</svg>
