<svg width="65" height="65" viewBox="0 0 65 65" fill="none" xmlns="http://www.w3.org/2000/svg">
<g clip-path="url(#clip0_2599_22729)">
<mask id="mask0_2599_22729" style="mask-type:luminance" maskUnits="userSpaceOnUse" x="0" y="0" width="65" height="65">
<path d="M65 0H0V65H65V0Z" fill="white"/>
</mask>
<g mask="url(#mask0_2599_22729)">
<path d="M32.5 58.5C46.8594 58.5 58.5 46.8594 58.5 32.5C58.5 18.1406 46.8594 6.5 32.5 6.5C18.1406 6.5 6.5 18.1406 6.5 32.5C6.5 46.8594 18.1406 58.5 32.5 58.5Z" stroke="#0085B8"/>
<path d="M17.5 30C24.4036 30 30 24.4036 30 17.5C30 10.5964 24.4036 5 17.5 5C10.5964 5 5 10.5964 5 17.5C5 24.4036 10.5964 30 17.5 30Z" fill="#005993"/>
<path d="M17.5 60C24.4036 60 30 54.4036 30 47.5C30 40.5964 24.4036 35 17.5 35C10.5964 35 5 40.5964 5 47.5C5 54.4036 10.5964 60 17.5 60Z" fill="#D71049"/>
<path d="M47.5 30C54.4036 30 60 24.4036 60 17.5C60 10.5964 54.4036 5 47.5 5C40.5964 5 35 10.5964 35 17.5C35 24.4036 40.5964 30 47.5 30Z" fill="#D71049"/>
<path d="M47.5 60C54.4036 60 60 54.4036 60 47.5C60 40.5964 54.4036 35 47.5 35C40.5964 35 35 40.5964 35 47.5C35 54.4036 40.5964 60 47.5 60Z" fill="#005993"/>
<path d="M19.2232 20.473C19.2442 20.0703 19.1068 19.6755 18.8402 19.373C18.4671 19.0298 18.0233 18.7725 17.5402 18.619C17.0001 18.4202 16.4716 18.1911 15.9572 17.933C15.5427 17.7256 15.1587 17.4622 14.8162 17.15C14.5007 16.8576 14.2485 16.5036 14.0752 16.11C13.8884 15.6594 13.7981 15.1746 13.8102 14.687C13.7948 14.2566 13.8677 13.8277 14.0241 13.4265C14.1806 13.0253 14.4175 12.6603 14.7202 12.354C15.3751 11.7257 16.2314 11.3498 17.1372 11.293V9.49298H18.4812V11.321C19.3908 11.4159 20.2276 11.8614 20.8142 12.563C21.4009 13.3274 21.699 14.2743 21.6562 15.237H19.2232C19.2636 14.6999 19.1162 14.1654 18.8062 13.725C18.6713 13.5613 18.5003 13.431 18.3067 13.3443C18.1132 13.2576 17.9022 13.2167 17.6902 13.225C17.4944 13.2128 17.2983 13.2414 17.1141 13.3089C16.9299 13.3763 16.7618 13.4812 16.6202 13.617C16.4887 13.7634 16.3876 13.9344 16.3225 14.1201C16.2575 14.3058 16.2298 14.5025 16.2412 14.699C16.2323 14.8863 16.2605 15.0736 16.3241 15.25C16.3878 15.4264 16.4857 15.5885 16.6122 15.727C17.0149 16.0786 17.4828 16.3477 17.9892 16.519C18.5555 16.7399 19.1082 16.9943 19.6442 17.281C20.0459 17.497 20.4147 17.7694 20.7392 18.09C21.0325 18.384 21.2643 18.7335 21.4212 19.118C21.5863 19.5461 21.6665 20.0022 21.6572 20.461C21.6746 20.8889 21.6043 21.3159 21.4507 21.7157C21.2972 22.1155 21.0635 22.4797 20.7642 22.786C20.0936 23.4148 19.2231 23.7876 18.3052 23.839V25.515H16.9652V23.84C15.9519 23.7811 14.9976 23.3439 14.2912 22.615C13.6347 21.8478 13.2969 20.8584 13.3472 19.85H15.7782C15.7409 20.4036 15.9106 20.9513 16.2542 21.387C16.4294 21.5709 16.6427 21.7141 16.8793 21.8065C17.1158 21.899 17.3698 21.9384 17.6232 21.922C18.0492 21.9455 18.4682 21.8053 18.7942 21.53C18.938 21.3954 19.0508 21.2311 19.1249 21.0486C19.1989 20.8661 19.2325 20.6697 19.2232 20.473Z" fill="white" stroke="white" stroke-linecap="round" stroke-linejoin="round"/>
<path d="M52.2422 14.251V15.328C52.244 15.3729 52.2365 15.4176 52.2202 15.4595C52.2039 15.5013 52.179 15.5393 52.1473 15.5711C52.1155 15.6028 52.0775 15.6277 52.0357 15.644C51.9939 15.6603 51.9491 15.6678 51.9042 15.666H50.1302C49.9961 16.6293 49.5111 17.5092 48.7682 18.137C47.9344 18.8067 46.9191 19.2114 45.8532 19.299C47.0292 20.5523 48.6452 22.4393 50.7012 24.96C50.748 25.0061 50.7776 25.0668 50.7852 25.1321C50.7929 25.1974 50.778 25.2633 50.7432 25.319C50.7187 25.3788 50.6759 25.4295 50.621 25.4636C50.566 25.4977 50.5017 25.5136 50.4372 25.509H48.3772C48.3261 25.5111 48.2754 25.5007 48.2293 25.4785C48.1833 25.4564 48.1434 25.4232 48.1132 25.382C45.9585 22.798 44.2052 20.7877 42.8532 19.351C42.8215 19.3213 42.7962 19.2853 42.779 19.2454C42.7618 19.2055 42.753 19.1625 42.7532 19.119V17.779C42.7545 17.6897 42.7905 17.6045 42.8536 17.5414C42.9167 17.4783 43.002 17.4423 43.0912 17.441H44.2742C45.048 17.4742 45.8182 17.3184 46.5182 16.987C46.7825 16.857 47.0158 16.6719 47.2026 16.4442C47.3894 16.2166 47.5253 15.9515 47.6012 15.667H43.0912C43.0463 15.6688 43.0016 15.6613 42.9597 15.645C42.9179 15.6287 42.8799 15.6038 42.8481 15.5721C42.8164 15.5403 42.7915 15.5023 42.7752 15.4605C42.7589 15.4186 42.7514 15.3739 42.7532 15.329V14.252C42.7514 14.2071 42.7589 14.1623 42.7752 14.1205C42.7915 14.0787 42.8164 14.0407 42.8481 14.0089C42.8799 13.9771 42.9179 13.9523 42.9597 13.936C43.0016 13.9196 43.0463 13.9121 43.0912 13.914H47.4582C47.0582 13.1186 46.1149 12.721 44.6282 12.721H43.0972C43.008 12.7197 42.9228 12.6837 42.8596 12.6206C42.7965 12.5574 42.7605 12.4722 42.7592 12.383V10.983C42.7574 10.9381 42.7648 10.8933 42.7812 10.8515C42.7975 10.8097 42.8224 10.7717 42.8541 10.7399C42.8859 10.7082 42.9239 10.6833 42.9657 10.667C43.0076 10.6506 43.0523 10.6432 43.0972 10.645H51.8842C51.9291 10.6432 51.9738 10.6506 52.0157 10.667C52.0575 10.6833 52.0955 10.7082 52.1273 10.7399C52.159 10.7717 52.1839 10.8097 52.2002 10.8515C52.2166 10.8933 52.224 10.9381 52.2222 10.983V12.06C52.224 12.1049 52.2166 12.1496 52.2002 12.1915C52.1839 12.2333 52.159 12.2713 52.1273 12.3031C52.0955 12.3348 52.0575 12.3597 52.0157 12.376C51.9738 12.3923 51.9291 12.3998 51.8842 12.398H49.4232C49.7626 12.8462 49.9939 13.3667 50.0992 13.919H51.9052C51.9501 13.9172 51.9948 13.9246 52.0367 13.941C52.0785 13.9573 52.1165 13.9822 52.1483 14.0139C52.18 14.0457 52.2049 14.0837 52.2212 14.1255C52.2376 14.1673 52.245 14.2121 52.2432 14.257L52.2422 14.251Z" fill="white" stroke="white" stroke-width="0.5"/>
<path d="M17.2129 42.042C17.633 41.705 18.166 41.5412 18.7029 41.584C19.1116 41.5965 19.5091 41.7205 19.8524 41.9426C20.1958 42.1646 20.4719 42.4763 20.6509 42.844L22.1409 41.584C21.7816 40.9334 21.2483 40.3958 20.6005 40.0314C19.9528 39.667 19.2164 39.4903 18.4739 39.521C17.3859 39.4735 16.3208 39.8422 15.4949 40.552C15.0745 40.9897 14.7543 41.5137 14.5564 42.0874C14.3585 42.6612 14.2877 43.2711 14.3489 43.875V46.167H12.8589V48H14.4589V51.321H12.9739V53.271H22.1409V51.321H16.6409V48H19.7349V46.167H16.6399V43.761C16.5959 43.1347 16.8019 42.5166 17.2129 42.042Z" fill="white" stroke="white" stroke-linecap="round" stroke-linejoin="round"/>
<path d="M51.6312 41.268L48.1002 46.98H48.0002L44.6732 41.268H42.2842L45.9192 47.292H43.5302V48.85H46.8542V49.992H43.5302V51.55H46.8542V53.731H49.1392V51.55H52.4622V49.992H49.1392V48.954L49.2392 48.854H52.4592V47.292H50.1772L53.9162 41.268H51.6312Z" fill="white" stroke="white" stroke-width="0.5" stroke-linecap="round" stroke-linejoin="round"/>
</g>
</g>
<defs>
<clipPath id="clip0_2599_22729">
<rect width="65" height="65" fill="white"/>
</clipPath>
</defs>
</svg>
