<svg width="65" height="65" viewBox="0 0 65 65" fill="none" xmlns="http://www.w3.org/2000/svg">
<path d="M23.144 20.2C21.8502 20.437 20.6017 20.8756 19.444 21.5C14.044 20.2 7.54399 21.9 6.84399 23.5C6.24399 24.8 9.04399 27.5 10.944 29.1C10.0331 30.8165 9.42418 32.677 9.14399 34.6C7.24399 34.8 4.64399 35.4 4.24399 37C3.54399 39.7 4.24399 46 7.74399 46.7C9.26431 46.9459 10.8046 47.0464 12.344 47C13.6977 48.565 15.2827 49.9139 17.044 51L15.444 57.9H25.744L27.144 54.2C27.9391 54.3162 28.7406 54.383 29.544 54.4C30.8878 54.332 32.2248 54.1649 33.544 53.9L32.544 57.9H42.344C42.344 57.9 50.044 47.8 51.144 42.3C51.9414 40.6119 52.3513 38.7669 52.344 36.9C52.144 33 47.044 16 23.144 20.2Z" fill="#005993"/>
<path d="M35.644 7.00001C34.4092 6.99856 33.1862 7.24071 32.0451 7.71259C30.904 8.18447 29.8672 8.87682 28.994 9.74997C28.1208 10.6231 27.4285 11.66 26.9566 12.8011C26.4847 13.9422 26.2426 15.1652 26.244 16.4C26.251 17.9948 26.6574 19.5625 27.4259 20.9599C28.1945 22.3574 29.3009 23.5401 30.644 24.4C33.0342 24.3262 35.4149 24.7343 37.644 25.6C39.7593 25.1585 41.6586 24.0036 43.024 22.3288C44.3893 20.6539 45.1378 18.5608 45.144 16.4C45.1074 13.9011 44.0916 11.5163 42.3151 9.75853C40.5385 8.00072 38.1432 7.01022 35.644 7.00001Z" fill="#D71049"/>
<path d="M36.936 18.3384C36.9512 18.0619 36.8521 17.7908 36.6598 17.5832C36.3906 17.3476 36.0706 17.1709 35.722 17.0655C35.3325 16.929 34.9512 16.7718 34.5802 16.5945C34.2812 16.4522 34.0042 16.2713 33.7571 16.0569C33.5296 15.8562 33.3477 15.6132 33.2226 15.3429C33.0879 15.0336 33.0228 14.7007 33.0315 14.366C33.0204 14.0705 33.0729 13.776 33.1858 13.5005C33.2987 13.2251 33.4696 12.9745 33.6879 12.7642C34.1603 12.3329 34.778 12.0748 35.4314 12.0358V10.8H36.4008V12.055C37.0569 12.1202 37.6605 12.426 38.0837 12.9077C38.5069 13.4325 38.722 14.0826 38.691 14.7436H36.936C36.9652 14.3748 36.8589 14.0079 36.6353 13.7055C36.5379 13.5931 36.4146 13.5037 36.275 13.4441C36.1353 13.3846 35.9831 13.3566 35.8302 13.3622C35.689 13.3539 35.5476 13.3735 35.4147 13.4198C35.2819 13.4661 35.1605 13.5382 35.0584 13.6313C34.9636 13.7319 34.8906 13.8493 34.8437 13.9768C34.7968 14.1043 34.7769 14.2393 34.785 14.3742C34.7786 14.5028 34.799 14.6314 34.8449 14.7525C34.8908 14.8736 34.9614 14.9849 35.0527 15.08C35.3432 15.3214 35.6806 15.5061 36.0459 15.6237C36.4544 15.7754 36.8531 15.9501 37.2397 16.1469C37.5295 16.2952 37.7955 16.4822 38.0296 16.7023C38.2411 16.9042 38.4084 17.1441 38.5215 17.4081C38.6406 17.702 38.6985 18.0152 38.6918 18.3301C38.7043 18.6239 38.6536 18.9171 38.5428 19.1916C38.4321 19.466 38.2636 19.7161 38.0476 19.9264C37.5639 20.3581 36.936 20.614 36.2739 20.6493V21.8H35.3073V20.65C34.5763 20.6096 33.888 20.3094 33.3784 19.809C32.9049 19.2823 32.6612 18.603 32.6975 17.9106H34.4511C34.4242 18.2907 34.5465 18.6668 34.7944 18.9659C34.9208 19.0921 35.0747 19.1905 35.2453 19.2539C35.4159 19.3174 35.5991 19.3444 35.7819 19.3332C36.0892 19.3494 36.3914 19.2531 36.6266 19.0641C36.7303 18.9716 36.8117 18.8589 36.8651 18.7336C36.9186 18.6083 36.9428 18.4734 36.936 18.3384Z" fill="white"/>
<path fill-rule="evenodd" clip-rule="evenodd" d="M14.544 33.7C14.544 32.5954 15.4394 31.7 16.544 31.7C17.6486 31.7 18.544 32.5954 18.544 33.7C18.544 34.8046 17.6486 35.7 16.544 35.7C15.4394 35.7 14.544 34.8046 14.544 33.7Z" fill="white"/>
<path d="M50.144 33.1C50.144 33.1 57.044 33.5 56.644 28.6C56.344 25 54.544 24.3 53.344 25.8C52.344 27.1 53.344 30.7 57.544 30.5C61.744 30.3 60.544 25 60.544 25" stroke="#0085B8" stroke-miterlimit="10" stroke-linecap="round" stroke-linejoin="round"/>
</svg>
