<svg xmlns="http://www.w3.org/2000/svg" width="156" height="47" viewBox="0 0 156 47" fill="none">
  <path d="M150.159 0.362793H6.41036C3.23475 0.362793 0.6604 2.93714 0.6604 6.11276V40.6125C0.6604 43.7881 3.23475 46.3625 6.41036 46.3625H150.159C153.335 46.3625 155.909 43.7881 155.909 40.6125V6.11276C155.909 2.93714 153.335 0.362793 150.159 0.362793Z" fill="black"/>
  <path d="M150.159 1.28279C151.44 1.28279 152.669 1.79166 153.575 2.69745C154.481 3.60325 154.989 4.83177 154.989 6.11276V40.6125C154.989 41.8935 154.481 43.122 153.575 44.0278C152.669 44.9336 151.44 45.4425 150.159 45.4425H6.41036C5.12938 45.4425 3.90085 44.9336 2.99506 44.0278C2.08926 43.122 1.58039 41.8935 1.58039 40.6125V6.11276C1.58039 4.83177 2.08926 3.60325 2.99506 2.69745C3.90085 1.79166 5.12938 1.28279 6.41036 1.28279H150.159ZM150.159 0.362793H6.41036C4.88538 0.362793 3.42285 0.968591 2.34453 2.04692C1.2662 3.12525 0.6604 4.58777 0.6604 6.11276V40.6125C0.6604 42.1375 1.2662 43.6 2.34453 44.6784C3.42285 45.7567 4.88538 46.3625 6.41036 46.3625H150.159C151.684 46.3625 153.147 45.7567 154.225 44.6784C155.304 43.6 155.909 42.1375 155.909 40.6125V6.11276C155.909 4.58777 155.304 3.12525 154.225 2.04692C153.147 0.968591 151.684 0.362793 150.159 0.362793Z" fill="#A6A6A6"/>
  <path d="M37.5836 22.5752C37.5519 19.0437 40.4752 17.3256 40.6089 17.2456C38.9533 14.8317 36.3871 14.5019 35.4853 14.4756C33.3301 14.2488 31.2394 15.7653 30.1415 15.7653C29.0217 15.7653 27.331 14.4976 25.5088 14.5348C23.164 14.571 20.9703 15.9286 19.7672 18.0367C17.2843 22.3352 19.1361 28.6521 21.5149 32.1266C22.7049 33.8282 24.0953 35.7282 25.9153 35.6614C27.6959 35.588 28.361 34.5262 30.5097 34.5262C32.6387 34.5262 33.2632 35.6614 35.1194 35.6187C37.0303 35.588 38.2334 33.9093 39.3817 32.1923C40.7568 30.242 41.3091 28.3212 41.331 28.2225C41.2861 28.2072 37.6198 26.808 37.5836 22.5752Z" fill="white"/>
  <path d="M34.0822 12.1908C35.0398 10.9932 35.6951 9.36389 35.5132 7.71045C34.1271 7.77181 32.3937 8.6692 31.3955 9.84053C30.5123 10.8727 29.7234 12.5645 29.9272 14.1555C31.4842 14.2716 33.0829 13.3698 34.0822 12.1908Z" fill="white"/>
  <path d="M63.3536 35.4173H60.8652L59.5022 31.1341H54.7643L53.4658 35.4173H51.0432L55.7373 20.8354H58.6366L63.3536 35.4173ZM59.0913 29.3371L57.8586 25.5295C57.7282 25.1405 57.4839 24.2245 57.1234 22.7825H57.0795C56.936 23.4027 56.7048 24.3187 56.387 25.5295L55.1763 29.3371H59.0913Z" fill="white"/>
  <path d="M75.4227 30.0308C75.4227 31.8191 74.9395 33.2325 73.973 34.2702C73.1074 35.1939 72.0325 35.6552 70.7494 35.6552C69.3644 35.6552 68.3695 35.1577 67.7636 34.1628H67.7198V39.7017H65.3837V28.3642C65.3837 27.24 65.3541 26.0862 65.2971 24.9029H67.3516L67.482 26.5695H67.5258C68.3049 25.3138 69.4872 24.687 71.0738 24.687C72.3141 24.687 73.3496 25.1768 74.1779 26.1575C75.0085 27.1392 75.4227 28.43 75.4227 30.0308ZM73.0428 30.1163C73.0428 29.0929 72.8127 28.2492 72.3503 27.5852C71.8451 26.8927 71.1669 26.5464 70.3166 26.5464C69.7403 26.5464 69.2165 26.7393 68.7486 27.1195C68.2797 27.503 67.9729 28.0038 67.8293 28.6239C67.757 28.9132 67.7208 29.1499 67.7208 29.3362V31.0893C67.7208 31.8541 67.9553 32.4995 68.4243 33.0265C68.8933 33.5536 69.5025 33.8166 70.252 33.8166C71.1318 33.8166 71.8167 33.4769 72.3064 32.7997C72.7973 32.1215 73.0428 31.2274 73.0428 30.1163Z" fill="white"/>
  <path d="M87.5173 30.0308C87.5173 31.8191 87.0341 33.2325 86.0665 34.2702C85.202 35.1939 84.1271 35.6552 82.844 35.6552C81.459 35.6552 80.4641 35.1577 79.8593 34.1628H79.8155V39.7017H77.4794V28.3642C77.4794 27.24 77.4498 26.0862 77.3928 24.9029H79.4473L79.5777 26.5695H79.6215C80.3995 25.3138 81.5818 24.687 83.1695 24.687C84.4087 24.687 85.4442 25.1768 86.2747 26.1575C87.102 27.1392 87.5173 28.43 87.5173 30.0308ZM85.1374 30.1163C85.1374 29.0929 84.9062 28.2492 84.4438 27.5852C83.9387 26.8927 83.2626 26.5464 82.4112 26.5464C81.8338 26.5464 81.3111 26.7393 80.8422 27.1195C80.3732 27.503 80.0675 28.0038 79.9239 28.6239C79.8527 28.9132 79.8155 29.1499 79.8155 29.3362V31.0893C79.8155 31.8541 80.0499 32.4995 80.5167 33.0265C80.9857 33.5525 81.5949 33.8166 82.3466 33.8166C83.2264 33.8166 83.9113 33.4769 84.4011 32.7997C84.8919 32.1215 85.1374 31.2274 85.1374 30.1163Z" fill="white"/>
  <path d="M101.039 31.3279C101.039 32.5682 100.608 33.5774 99.7436 34.3564C98.7936 35.2078 97.471 35.6329 95.7716 35.6329C94.2025 35.6329 92.9446 35.3305 91.9924 34.7246L92.5337 32.7775C93.5593 33.3977 94.6846 33.7089 95.9107 33.7089C96.7906 33.7089 97.4754 33.5094 97.9674 33.1128C98.4572 32.7161 98.7015 32.1836 98.7015 31.5196C98.7015 30.9279 98.4999 30.4294 98.0956 30.0251C97.6935 29.6207 97.0218 29.2449 96.0839 28.8976C93.5308 27.9454 92.2554 26.5505 92.2554 24.7163C92.2554 23.5176 92.7025 22.5347 93.5977 21.7699C94.4896 21.004 95.6795 20.6216 97.1675 20.6216C98.4944 20.6216 99.5967 20.8528 100.477 21.3141L99.8926 23.2184C99.0708 22.7714 98.1416 22.5479 97.1018 22.5479C96.28 22.5479 95.6379 22.7506 95.1777 23.1538C94.7887 23.5143 94.5937 23.9537 94.5937 24.4741C94.5937 25.0505 94.8161 25.5271 95.2632 25.9019C95.6521 26.2481 96.3589 26.6228 97.3845 27.0272C98.6391 27.5323 99.5606 28.1229 100.153 28.8C100.744 29.475 101.039 30.3198 101.039 31.3279Z" fill="white"/>
  <path d="M108.763 26.6548H106.188V31.7597C106.188 33.0581 106.642 33.7068 107.551 33.7068C107.969 33.7068 108.315 33.6707 108.589 33.5983L108.653 35.3723C108.193 35.5443 107.587 35.6309 106.837 35.6309C105.914 35.6309 105.193 35.3493 104.673 34.7872C104.154 34.224 103.894 33.2795 103.894 31.9526V26.6526H102.36V24.8994H103.894V22.9742L106.188 22.2817V24.8994H108.763V26.6548Z" fill="white"/>
  <path d="M120.383 30.0744C120.383 31.6906 119.921 33.0175 118.998 34.0552C118.03 35.1235 116.746 35.656 115.145 35.656C113.603 35.656 112.374 35.1443 111.458 34.1209C110.542 33.0975 110.084 31.8057 110.084 30.2486C110.084 28.6193 110.555 27.2847 111.501 26.2471C112.444 25.2083 113.718 24.689 115.318 24.689C116.861 24.689 118.103 25.2007 119.04 26.2252C119.936 27.219 120.383 28.5021 120.383 30.0744ZM117.959 30.15C117.959 29.1803 117.752 28.3487 117.332 27.6551C116.843 26.8158 116.142 26.3972 115.235 26.3972C114.296 26.3972 113.583 26.8169 113.093 27.6551C112.673 28.3498 112.466 29.1946 112.466 30.1939C112.466 31.1636 112.673 31.9952 113.093 32.6877C113.598 33.527 114.304 33.9456 115.214 33.9456C116.106 33.9456 116.806 33.5183 117.312 32.6658C117.742 31.9591 117.959 31.1186 117.959 30.15Z" fill="white"/>
  <path d="M127.973 26.9573C127.742 26.9146 127.496 26.8927 127.237 26.8927C126.415 26.8927 125.78 27.2028 125.333 27.8241C124.944 28.3719 124.749 29.0644 124.749 29.9004V35.4174H122.414L122.436 28.2141C122.436 27.0023 122.406 25.8989 122.348 24.904H124.383L124.468 26.9157H124.533C124.779 26.2243 125.168 25.6677 125.701 25.2502C126.221 24.8744 126.783 24.687 127.389 24.687C127.605 24.687 127.8 24.7024 127.973 24.7297V26.9573Z" fill="white"/>
  <path d="M138.421 29.6629C138.421 30.0814 138.393 30.4343 138.335 30.7224H131.327C131.354 31.7612 131.693 32.5556 132.344 33.1034C132.934 33.5932 133.698 33.8387 134.636 33.8387C135.674 33.8387 136.62 33.6732 137.472 33.3412L137.838 34.9629C136.843 35.3968 135.668 35.6126 134.313 35.6126C132.682 35.6126 131.403 35.1327 130.471 34.1739C129.542 33.2152 129.076 31.9277 129.076 30.3126C129.076 28.7271 129.509 27.4068 130.376 26.3538C131.283 25.2296 132.509 24.6675 134.052 24.6675C135.567 24.6675 136.715 25.2296 137.494 26.3538C138.111 27.2468 138.421 28.3513 138.421 29.6629ZM136.193 29.0569C136.208 28.3644 136.056 27.7662 135.739 27.261C135.335 26.6113 134.714 26.287 133.878 26.287C133.114 26.287 132.493 26.6036 132.018 27.2391C131.629 27.7443 131.398 28.3502 131.327 29.0558H136.193V29.0569Z" fill="white"/>
</svg>