<svg width="49" height="49" viewBox="0 0 49 49" fill="none" xmlns="http://www.w3.org/2000/svg">
<g clip-path="url(#clip0_1350_17201)">
<path d="M0.334961 16.7C0.334961 11.0051 0.334961 8.15761 1.46083 5.99023C2.40958 4.1638 3.89879 2.6746 5.72522 1.72584C7.8926 0.599976 10.7401 0.599976 16.435 0.599976H32.235C37.9299 0.599976 40.7773 0.599976 42.9447 1.72584C44.7711 2.6746 46.2603 4.1638 47.2091 5.99023C48.335 8.15761 48.335 11.0051 48.335 16.7V32.5C48.335 38.1949 48.335 41.0423 47.2091 43.2097C46.2603 45.0362 44.7711 46.5254 42.9447 47.4741C40.7773 48.6 37.9299 48.6 32.235 48.6H16.435C10.7401 48.6 7.8926 48.6 5.72522 47.4741C3.89879 46.5254 2.40958 45.0362 1.46083 43.2097C0.334961 41.0423 0.334961 38.1949 0.334961 32.5V16.7Z" fill="black"/>
<path d="M14.8985 29.3407C15.0939 27.7233 15.7572 26.8177 17.0072 25.8894C18.7958 24.6322 21.03 25.3434 21.03 25.3434V21.1244C21.5732 21.1105 22.1165 21.1427 22.6538 21.2206V26.65C22.6538 26.65 20.4203 25.9388 18.6317 27.1967C17.3823 28.1244 16.7176 29.0306 16.523 30.6479C16.5169 31.5262 16.6817 32.6742 17.4407 33.6669C17.253 33.5707 17.0617 33.461 16.8668 33.3379C15.1949 32.2153 14.8904 30.5309 14.8985 29.3407ZM31.8788 13.3236C30.6484 11.9753 30.1831 10.6141 30.0149 9.65784H31.5627C31.5627 9.65784 31.2541 12.1652 33.5032 14.6309L33.5344 14.664C32.9282 14.2827 32.3723 13.8327 31.8788 13.3236ZM39.3349 17.146V22.4662C39.3349 22.4662 37.3598 22.3888 35.8982 22.017C33.8573 21.4969 32.5455 20.6993 32.5455 20.6993C32.5455 20.6993 31.6394 20.1305 31.5661 20.0908V31.077C31.5661 31.6887 31.3986 33.2164 30.8878 34.4905C30.2211 36.1573 29.1922 37.2514 29.003 37.475C29.003 37.475 27.7516 38.9539 25.5438 39.9498C23.5538 40.8482 21.8066 40.8254 21.2844 40.8482C21.2844 40.8482 18.2641 40.9678 15.5463 39.2016C14.9586 38.8123 14.41 38.3714 13.9076 37.8845L13.9212 37.8943C16.6396 39.6605 19.6592 39.5409 19.6592 39.5409C20.1822 39.5182 21.9294 39.5409 23.9187 38.6425C26.1244 37.6466 27.3778 36.1677 27.3778 36.1677C27.565 35.9441 28.5987 34.85 29.2627 33.1826C29.7721 31.9091 29.941 30.3808 29.941 29.7691V18.7842C30.0142 18.8245 30.9197 19.3933 30.9197 19.3933C30.9197 19.3933 32.2322 20.1916 34.273 20.711C35.7354 21.0828 37.7098 21.1602 37.7098 21.1602V16.9913C38.3853 17.1427 38.9612 17.1837 39.3349 17.146Z" fill="#FD355A"/>
<path d="M37.7105 16.9913V21.1589C37.7105 21.1589 35.7361 21.0815 34.2737 20.7097C32.2329 20.1896 30.9204 19.392 30.9204 19.392C30.9204 19.392 30.0149 18.8232 29.9417 18.7829V29.7704C29.9417 30.3821 29.7742 31.9104 29.2634 33.1839C28.5967 34.8513 27.5678 35.9454 27.3785 36.169C27.3785 36.169 26.1265 37.6479 23.9194 38.6438C21.9301 39.5422 20.1829 39.5195 19.6599 39.5422C19.6599 39.5422 16.6403 39.6618 13.9219 37.8956L13.9083 37.8858C13.6213 37.6079 13.3511 37.3145 13.0991 37.0069C12.2316 35.9493 11.6999 34.6985 11.5663 34.3416C11.566 34.3401 11.566 34.3386 11.5663 34.3371C11.3512 33.7169 10.8995 32.2276 10.9612 30.7851C11.0704 28.2401 11.9657 26.678 12.2025 26.2866C12.8294 25.2194 13.6448 24.2646 14.6123 23.4647C15.4661 22.7744 16.4339 22.2251 17.4759 21.8395C18.6024 21.3867 19.8087 21.144 21.03 21.1244V25.3434C21.03 25.3434 18.7958 24.6348 17.0079 25.8894C15.7579 26.8177 15.0946 27.7233 14.8992 29.3407C14.8911 30.5309 15.1956 32.2153 16.8662 33.3386C17.0611 33.4621 17.2523 33.5717 17.44 33.6675C17.7318 34.0469 18.0871 34.3775 18.4913 34.6459C20.1232 35.6788 21.4906 35.751 23.2391 35.0801C24.405 34.6316 25.2827 33.6207 25.6897 32.5006C25.9454 31.8012 25.942 31.0971 25.942 30.3691V9.65784H30.0116C30.1798 10.6141 30.645 11.9753 31.8754 13.3236C32.369 13.8327 32.9249 14.2827 33.531 14.664C33.7101 14.8493 34.6258 15.7652 35.8012 16.3276C36.409 16.6182 37.0496 16.8409 37.7105 16.9913Z" fill="white"/>
<path d="M9.94653 33.0461V33.0494L10.0475 33.3231C10.0359 33.2912 9.99839 33.1944 9.94653 33.0461Z" fill="#33F3ED"/>
<path d="M17.476 21.8397C16.434 22.2253 15.4662 22.7745 14.6124 23.4648C13.6445 24.2666 12.8293 25.2234 12.2032 26.2926C11.9665 26.6827 11.0712 28.2461 10.962 30.7911C10.9002 32.2336 11.352 33.7229 11.567 34.3431C11.5667 34.3446 11.5667 34.3461 11.567 34.3476C11.7026 34.7013 12.2324 35.952 13.0998 37.0129C13.3518 37.3205 13.622 37.6139 13.909 37.8918C12.9894 37.2823 12.1693 36.5453 11.4754 35.705C10.6154 34.6564 10.085 33.4187 9.94661 33.0534C9.94645 33.0508 9.94645 33.0482 9.94661 33.0456V33.041C9.73093 32.4215 9.27785 30.9315 9.34093 29.4871C9.45013 26.9421 10.3454 25.3799 10.5821 24.9886C11.2081 23.9193 12.0233 22.9624 12.9913 22.1608C13.845 21.4703 14.8128 20.921 15.8549 20.5356C16.505 20.2771 17.1822 20.0864 17.8748 19.9668C18.9186 19.7922 19.9847 19.777 21.0335 19.9219V21.1246C19.811 21.1437 18.6035 21.3865 17.476 21.8397Z" fill="#33F3ED"/>
<path d="M30.0149 9.65792H25.9454V30.3698C25.9454 31.0979 25.9454 31.7999 25.693 32.5014C25.282 33.6208 24.4077 34.6317 23.2425 35.0802C21.4933 35.7537 20.1259 35.6789 18.4947 34.646C18.0897 34.3787 17.7336 34.0493 17.4406 33.6709C18.8304 34.3814 20.0743 34.369 21.6153 33.7762C22.7799 33.3276 23.6555 32.3168 24.0652 31.1967C24.3216 30.4972 24.3182 29.7932 24.3182 29.0658V8.34998H29.9376C29.9376 8.34998 29.8745 8.86483 30.0149 9.65792ZM37.7105 15.8388V16.9914C37.0507 16.8408 36.4113 16.6181 35.8046 16.3276C34.6291 15.7653 33.7135 14.8494 33.5344 14.6641C33.7422 14.7949 33.9578 14.9138 34.1801 15.0203C35.6092 15.7042 37.0166 15.9083 37.7105 15.8388Z" fill="#33F3ED"/>
</g>
<defs>
<clipPath id="clip0_1350_17201">
<rect x="0.334961" y="0.599976" width="48" height="48" rx="24" fill="white"/>
</clipPath>
</defs>
</svg>
