<svg xmlns="http://www.w3.org/2000/svg" width="49" height="49" viewBox="0 0 49 49" fill="none">
  <path d="M0.5 24.6001C0.5 37.8549 11.2452 48.6001 24.5 48.6001C37.7548 48.6001 48.5 37.8549 48.5 24.6001C48.5 11.3453 37.7548 0.600098 24.5 0.600098C11.2452 0.600098 0.5 11.3453 0.5 24.6001Z" fill="#FF0000"/>
  <path d="M35.9 18.7501C35.6 17.7001 34.85 16.9501 33.8 16.6501C32 16.2001 24.35 16.2001 24.35 16.2001C24.35 16.2001 16.85 16.2001 14.9 16.6501C13.85 16.9501 13.1 17.7001 12.8 18.7501C12.5 20.7001 12.5 24.6001 12.5 24.6001C12.5 24.6001 12.5 28.5001 12.95 30.4501C13.25 31.5001 14 32.2501 15.05 32.5501C16.85 33.0001 24.5 33.0001 24.5 33.0001C24.5 33.0001 32 33.0001 33.95 32.5501C35 32.2501 35.75 31.5001 36.05 30.4501C36.5 28.5001 36.5 24.6001 36.5 24.6001C36.5 24.6001 36.5 20.7001 35.9 18.7501ZM22.1 28.2001V21.0001L28.4 24.6001L22.1 28.2001Z" fill="white"/>
</svg>